solid OpenSCAD_Model
  facet normal -0 0 1
    outer loop
      vertex 0 28.5 1.5
      vertex 20.6 0 1.5
      vertex 20.6 28.5 1.5
    endloop
  endfacet
  facet normal 0 0 1
    outer loop
      vertex 20.6 0 1.5
      vertex 0 28.5 1.5
      vertex 0 0 1.5
    endloop
  endfacet
  facet normal 0 0 -1
    outer loop
      vertex 0 0 0
      vertex 20.6 28.5 0
      vertex 20.6 0 0
    endloop
  endfacet
  facet normal -0 0 -1
    outer loop
      vertex 20.6 28.5 0
      vertex 0 0 0
      vertex 0 28.5 0
    endloop
  endfacet
  facet normal 0 -1 0
    outer loop
      vertex 0 0 0
      vertex 20.6 0 1.5
      vertex 0 0 1.5
    endloop
  endfacet
  facet normal 0 -1 -0
    outer loop
      vertex 20.6 0 1.5
      vertex 0 0 0
      vertex 20.6 0 0
    endloop
  endfacet
  facet normal 1 -0 0
    outer loop
      vertex 20.6 0 1.5
      vertex 20.6 28.5 0
      vertex 20.6 28.5 1.5
    endloop
  endfacet
  facet normal 1 0 0
    outer loop
      vertex 20.6 28.5 0
      vertex 20.6 0 1.5
      vertex 20.6 0 0
    endloop
  endfacet
  facet normal 0 1 -0
    outer loop
      vertex 20.6 28.5 0
      vertex 0 28.5 1.5
      vertex 20.6 28.5 1.5
    endloop
  endfacet
  facet normal 0 1 0
    outer loop
      vertex 0 28.5 1.5
      vertex 20.6 28.5 0
      vertex 0 28.5 0
    endloop
  endfacet
  facet normal -1 0 0
    outer loop
      vertex 0 0 0
      vertex 0 28.5 1.5
      vertex 0 28.5 0
    endloop
  endfacet
  facet normal -1 -0 0
    outer loop
      vertex 0 28.5 1.5
      vertex 0 0 0
      vertex 0 0 1.5
    endloop
  endfacet
endsolid OpenSCAD_Model
