solid OpenSCAD_Model
  facet normal -1 0 0
    outer loop
      vertex 0 0 0
      vertex 0 28.5 9.3
      vertex 0 28.5 0
    endloop
  endfacet
  facet normal -1 -0 0
    outer loop
      vertex 0 28.5 9.3
      vertex 0 0 0
      vertex 0 0 9.3
    endloop
  endfacet
  facet normal 0 0 1
    outer loop
      vertex 20.6 28.5 9.3
      vertex 19.6 27.5 9.3
      vertex 20.6 0 9.3
    endloop
  endfacet
  facet normal 0 0 1
    outer loop
      vertex 20.6 28.5 9.3
      vertex 1 27.5 9.3
      vertex 19.6 27.5 9.3
    endloop
  endfacet
  facet normal 0 0 1
    outer loop
      vertex 1 27.5 9.3
      vertex 0 28.5 9.3
      vertex 1 1 9.3
    endloop
  endfacet
  facet normal -0 0 1
    outer loop
      vertex 0 28.5 9.3
      vertex 1 27.5 9.3
      vertex 20.6 28.5 9.3
    endloop
  endfacet
  facet normal -0 0 1
    outer loop
      vertex 19.6 1 9.3
      vertex 20.6 0 9.3
      vertex 19.6 27.5 9.3
    endloop
  endfacet
  facet normal -0 0 1
    outer loop
      vertex 1 1 9.3
      vertex 20.6 0 9.3
      vertex 19.6 1 9.3
    endloop
  endfacet
  facet normal 0 0 1
    outer loop
      vertex 1 1 9.3
      vertex 0 0 9.3
      vertex 20.6 0 9.3
    endloop
  endfacet
  facet normal 0 0 1
    outer loop
      vertex 0 0 9.3
      vertex 1 1 9.3
      vertex 0 28.5 9.3
    endloop
  endfacet
  facet normal 1 -0 0
    outer loop
      vertex 20.6 0 9.3
      vertex 20.6 28.5 0
      vertex 20.6 28.5 9.3
    endloop
  endfacet
  facet normal 1 0 0
    outer loop
      vertex 20.6 28.5 0
      vertex 20.6 0 9.3
      vertex 20.6 0 0
    endloop
  endfacet
  facet normal 0 1 -0
    outer loop
      vertex 20.6 28.5 0
      vertex 0 28.5 9.3
      vertex 20.6 28.5 9.3
    endloop
  endfacet
  facet normal 0 1 0
    outer loop
      vertex 0 28.5 9.3
      vertex 20.6 28.5 0
      vertex 0 28.5 0
    endloop
  endfacet
  facet normal 0 0 -1
    outer loop
      vertex 0 0 0
      vertex 20.6 28.5 0
      vertex 20.6 0 0
    endloop
  endfacet
  facet normal -0 0 -1
    outer loop
      vertex 20.6 28.5 0
      vertex 0 0 0
      vertex 0 28.5 0
    endloop
  endfacet
  facet normal 0 -1 0
    outer loop
      vertex 4.63383 0 5.75048
      vertex 0 0 9.3
      vertex 4.52435 0 5.7779
    endloop
  endfacet
  facet normal 0 -1 0
    outer loop
      vertex 20.6 0 9.3
      vertex 16.1873 0 5.79446
      vertex 16.3 0 5.8
    endloop
  endfacet
  facet normal 0 -1 0
    outer loop
      vertex 4.74009 0 5.71246
      vertex 0 0 9.3
      vertex 4.63383 0 5.75048
    endloop
  endfacet
  facet normal 0 -1 0
    outer loop
      vertex 20.6 0 9.3
      vertex 16.0756 0 5.7779
      vertex 16.1873 0 5.79446
    endloop
  endfacet
  facet normal 0 -1 0
    outer loop
      vertex 0 0 9.3
      vertex 4.74009 0 5.71246
      vertex 20.6 0 9.3
    endloop
  endfacet
  facet normal 0 -1 0
    outer loop
      vertex 20.6 0 9.3
      vertex 15.9662 0 5.75048
      vertex 16.0756 0 5.7779
    endloop
  endfacet
  facet normal 0 -1 0
    outer loop
      vertex 15.8599 0 5.71246
      vertex 20.6 0 9.3
      vertex 4.74009 0 5.71246
    endloop
  endfacet
  facet normal 0 -1 0
    outer loop
      vertex 20.6 0 9.3
      vertex 15.8599 0 5.71246
      vertex 15.9662 0 5.75048
    endloop
  endfacet
  facet normal 0 -1 0
    outer loop
      vertex 4.84211 0 5.66421
      vertex 15.8599 0 5.71246
      vertex 4.74009 0 5.71246
    endloop
  endfacet
  facet normal 0 -1 0
    outer loop
      vertex 4.84211 0 5.66421
      vertex 15.7579 0 5.66421
      vertex 15.8599 0 5.71246
    endloop
  endfacet
  facet normal 0 -1 0
    outer loop
      vertex 4.93891 0 5.60619
      vertex 15.7579 0 5.66421
      vertex 4.84211 0 5.66421
    endloop
  endfacet
  facet normal 0 -1 0
    outer loop
      vertex 4.93891 0 5.60619
      vertex 15.6611 0 5.60619
      vertex 15.7579 0 5.66421
    endloop
  endfacet
  facet normal 0 -1 0
    outer loop
      vertex 5.02955 0 5.53896
      vertex 15.6611 0 5.60619
      vertex 4.93891 0 5.60619
    endloop
  endfacet
  facet normal 0 -1 0
    outer loop
      vertex 5.02955 0 5.53896
      vertex 15.5704 0 5.53896
      vertex 15.6611 0 5.60619
    endloop
  endfacet
  facet normal 0 -1 0
    outer loop
      vertex 5.11317 0 5.46317
      vertex 15.5704 0 5.53896
      vertex 5.02955 0 5.53896
    endloop
  endfacet
  facet normal 0 -1 0
    outer loop
      vertex 5.11317 0 5.46317
      vertex 15.4868 0 5.46317
      vertex 15.5704 0 5.53896
    endloop
  endfacet
  facet normal 0 -1 0
    outer loop
      vertex 5.18896 0 5.37955
      vertex 15.4868 0 5.46317
      vertex 5.11317 0 5.46317
    endloop
  endfacet
  facet normal 0 -1 0
    outer loop
      vertex 5.18896 0 5.37955
      vertex 15.411 0 5.37955
      vertex 15.4868 0 5.46317
    endloop
  endfacet
  facet normal 0 -1 0
    outer loop
      vertex 5.25619 0 5.28891
      vertex 15.411 0 5.37955
      vertex 5.18896 0 5.37955
    endloop
  endfacet
  facet normal 0 -1 0
    outer loop
      vertex 5.25619 0 5.28891
      vertex 15.3438 0 5.28891
      vertex 15.411 0 5.37955
    endloop
  endfacet
  facet normal 0 -1 0
    outer loop
      vertex 5.31421 0 5.19211
      vertex 15.3438 0 5.28891
      vertex 5.25619 0 5.28891
    endloop
  endfacet
  facet normal 0 -1 0
    outer loop
      vertex 5.31421 0 5.19211
      vertex 15.2858 0 5.19211
      vertex 15.3438 0 5.28891
    endloop
  endfacet
  facet normal 0 -1 0
    outer loop
      vertex 5.36246 0 5.09009
      vertex 15.2858 0 5.19211
      vertex 5.31421 0 5.19211
    endloop
  endfacet
  facet normal 0 -1 0
    outer loop
      vertex 5.36246 0 5.09009
      vertex 15.2375 0 5.09009
      vertex 15.2858 0 5.19211
    endloop
  endfacet
  facet normal 0 -1 0
    outer loop
      vertex 5.40048 0 4.98383
      vertex 15.2375 0 5.09009
      vertex 5.36246 0 5.09009
    endloop
  endfacet
  facet normal 0 -1 0
    outer loop
      vertex 5.40048 0 4.98383
      vertex 15.1995 0 4.98383
      vertex 15.2375 0 5.09009
    endloop
  endfacet
  facet normal 0 -1 0
    outer loop
      vertex 5.4279 0 4.87435
      vertex 15.1995 0 4.98383
      vertex 5.40048 0 4.98383
    endloop
  endfacet
  facet normal 0 -1 0
    outer loop
      vertex 5.4279 0 4.87435
      vertex 15.1721 0 4.87435
      vertex 15.1995 0 4.98383
    endloop
  endfacet
  facet normal 0 -1 0
    outer loop
      vertex 5.44446 0 4.76272
      vertex 15.1721 0 4.87435
      vertex 5.4279 0 4.87435
    endloop
  endfacet
  facet normal 0 -1 0
    outer loop
      vertex 5.44446 0 4.76272
      vertex 15.1555 0 4.76272
      vertex 15.1721 0 4.87435
    endloop
  endfacet
  facet normal 0 -1 0
    outer loop
      vertex 5.45 0 4.65
      vertex 15.1555 0 4.76272
      vertex 5.44446 0 4.76272
    endloop
  endfacet
  facet normal 0 -1 0
    outer loop
      vertex 5.45 0 4.65
      vertex 15.15 0 4.65
      vertex 15.1555 0 4.76272
    endloop
  endfacet
  facet normal 0 -1 0
    outer loop
      vertex 5.44446 0 4.53728
      vertex 15.15 0 4.65
      vertex 5.45 0 4.65
    endloop
  endfacet
  facet normal 0 -1 0
    outer loop
      vertex 5.44446 0 4.53728
      vertex 15.1555 0 4.53728
      vertex 15.15 0 4.65
    endloop
  endfacet
  facet normal 0 -1 0
    outer loop
      vertex 5.4279 0 4.42565
      vertex 15.1555 0 4.53728
      vertex 5.44446 0 4.53728
    endloop
  endfacet
  facet normal 0 -1 0
    outer loop
      vertex 5.4279 0 4.42565
      vertex 15.1721 0 4.42565
      vertex 15.1555 0 4.53728
    endloop
  endfacet
  facet normal 0 -1 0
    outer loop
      vertex 5.40048 0 4.31617
      vertex 15.1721 0 4.42565
      vertex 5.4279 0 4.42565
    endloop
  endfacet
  facet normal 0 -1 0
    outer loop
      vertex 5.40048 0 4.31617
      vertex 15.1995 0 4.31617
      vertex 15.1721 0 4.42565
    endloop
  endfacet
  facet normal 0 -1 0
    outer loop
      vertex 5.36246 0 4.20991
      vertex 15.1995 0 4.31617
      vertex 5.40048 0 4.31617
    endloop
  endfacet
  facet normal 0 -1 0
    outer loop
      vertex 5.36246 0 4.20991
      vertex 15.2375 0 4.20991
      vertex 15.1995 0 4.31617
    endloop
  endfacet
  facet normal 0 -1 0
    outer loop
      vertex 5.31421 0 4.10789
      vertex 15.2375 0 4.20991
      vertex 5.36246 0 4.20991
    endloop
  endfacet
  facet normal 0 -1 0
    outer loop
      vertex 5.31421 0 4.10789
      vertex 15.2858 0 4.10789
      vertex 15.2375 0 4.20991
    endloop
  endfacet
  facet normal 0 -1 0
    outer loop
      vertex 5.25619 0 4.01109
      vertex 15.2858 0 4.10789
      vertex 5.31421 0 4.10789
    endloop
  endfacet
  facet normal 0 -1 0
    outer loop
      vertex 5.25619 0 4.01109
      vertex 15.3438 0 4.01109
      vertex 15.2858 0 4.10789
    endloop
  endfacet
  facet normal 0 -1 0
    outer loop
      vertex 5.18896 0 3.92045
      vertex 15.3438 0 4.01109
      vertex 5.25619 0 4.01109
    endloop
  endfacet
  facet normal 0 -1 0
    outer loop
      vertex 5.18896 0 3.92045
      vertex 15.411 0 3.92045
      vertex 15.3438 0 4.01109
    endloop
  endfacet
  facet normal 0 -1 0
    outer loop
      vertex 5.11317 0 3.83683
      vertex 15.411 0 3.92045
      vertex 5.18896 0 3.92045
    endloop
  endfacet
  facet normal 0 -1 0
    outer loop
      vertex 5.11317 0 3.83683
      vertex 15.4868 0 3.83683
      vertex 15.411 0 3.92045
    endloop
  endfacet
  facet normal 0 -1 0
    outer loop
      vertex 5.02955 0 3.76104
      vertex 15.4868 0 3.83683
      vertex 5.11317 0 3.83683
    endloop
  endfacet
  facet normal 0 -1 0
    outer loop
      vertex 5.02955 0 3.76104
      vertex 15.5704 0 3.76104
      vertex 15.4868 0 3.83683
    endloop
  endfacet
  facet normal 0 -1 0
    outer loop
      vertex 4.93891 0 3.69381
      vertex 15.5704 0 3.76104
      vertex 5.02955 0 3.76104
    endloop
  endfacet
  facet normal 0 -1 0
    outer loop
      vertex 4.93891 0 3.69381
      vertex 15.6611 0 3.69381
      vertex 15.5704 0 3.76104
    endloop
  endfacet
  facet normal 0 -1 0
    outer loop
      vertex 4.84211 0 3.63579
      vertex 15.6611 0 3.69381
      vertex 4.93891 0 3.69381
    endloop
  endfacet
  facet normal 0 -1 0
    outer loop
      vertex 4.84211 0 3.63579
      vertex 15.7579 0 3.63579
      vertex 15.6611 0 3.69381
    endloop
  endfacet
  facet normal 0 -1 0
    outer loop
      vertex 4.74009 0 3.58754
      vertex 15.7579 0 3.63579
      vertex 4.84211 0 3.63579
    endloop
  endfacet
  facet normal 0 -1 0
    outer loop
      vertex 4.74009 0 3.58754
      vertex 15.8599 0 3.58754
      vertex 15.7579 0 3.63579
    endloop
  endfacet
  facet normal 0 -1 0
    outer loop
      vertex 0 0 0
      vertex 4.74009 0 3.58754
      vertex 4.63383 0 3.54952
    endloop
  endfacet
  facet normal 0 -1 -0
    outer loop
      vertex 4.74009 0 3.58754
      vertex 0 0 0
      vertex 15.8599 0 3.58754
    endloop
  endfacet
  facet normal 0 -1 0
    outer loop
      vertex 0 0 0
      vertex 4.63383 0 3.54952
      vertex 4.52435 0 3.5221
    endloop
  endfacet
  facet normal 0 -1 0
    outer loop
      vertex 20.6 0 0
      vertex 15.8599 0 3.58754
      vertex 0 0 0
    endloop
  endfacet
  facet normal 0 -1 0
    outer loop
      vertex 0 0 0
      vertex 4.52435 0 3.5221
      vertex 4.41272 0 3.50554
    endloop
  endfacet
  facet normal 0 -1 0
    outer loop
      vertex 15.8599 0 3.58754
      vertex 20.6 0 0
      vertex 15.9662 0 3.54952
    endloop
  endfacet
  facet normal 0 -1 0
    outer loop
      vertex 0 0 0
      vertex 4.41272 0 3.50554
      vertex 4.3 0 3.5
    endloop
  endfacet
  facet normal 0 -1 0
    outer loop
      vertex 15.9662 0 3.54952
      vertex 20.6 0 0
      vertex 16.0756 0 3.5221
    endloop
  endfacet
  facet normal 0 -1 0
    outer loop
      vertex 4.41272 0 5.79446
      vertex 0 0 9.3
      vertex 4.3 0 5.8
    endloop
  endfacet
  facet normal 0 -1 0
    outer loop
      vertex 0 0 9.3
      vertex 4.18728 0 5.79446
      vertex 4.3 0 5.8
    endloop
  endfacet
  facet normal 0 -1 0
    outer loop
      vertex 0 0 9.3
      vertex 4.07565 0 5.7779
      vertex 4.18728 0 5.79446
    endloop
  endfacet
  facet normal 0 -1 0
    outer loop
      vertex 0 0 9.3
      vertex 3.96617 0 5.75048
      vertex 4.07565 0 5.7779
    endloop
  endfacet
  facet normal 0 -1 0
    outer loop
      vertex 0 0 9.3
      vertex 3.85991 0 5.71246
      vertex 3.96617 0 5.75048
    endloop
  endfacet
  facet normal 0 -1 0
    outer loop
      vertex 0 0 9.3
      vertex 3.75789 0 5.66421
      vertex 3.85991 0 5.71246
    endloop
  endfacet
  facet normal 0 -1 0
    outer loop
      vertex 0 0 9.3
      vertex 3.66109 0 5.60619
      vertex 3.75789 0 5.66421
    endloop
  endfacet
  facet normal 0 -1 0
    outer loop
      vertex 0 0 9.3
      vertex 3.57045 0 5.53896
      vertex 3.66109 0 5.60619
    endloop
  endfacet
  facet normal 0 -1 0
    outer loop
      vertex 0 0 9.3
      vertex 3.48683 0 5.46317
      vertex 3.57045 0 5.53896
    endloop
  endfacet
  facet normal 0 -1 0
    outer loop
      vertex 0 0 9.3
      vertex 3.41104 0 5.37955
      vertex 3.48683 0 5.46317
    endloop
  endfacet
  facet normal 0 -1 0
    outer loop
      vertex 0 0 9.3
      vertex 3.34381 0 5.28891
      vertex 3.41104 0 5.37955
    endloop
  endfacet
  facet normal 0 -1 0
    outer loop
      vertex 0 0 9.3
      vertex 3.28579 0 5.19211
      vertex 3.34381 0 5.28891
    endloop
  endfacet
  facet normal 0 -1 0
    outer loop
      vertex 0 0 9.3
      vertex 3.23754 0 5.09009
      vertex 3.28579 0 5.19211
    endloop
  endfacet
  facet normal 0 -1 0
    outer loop
      vertex 0 0 9.3
      vertex 3.19952 0 4.98383
      vertex 3.23754 0 5.09009
    endloop
  endfacet
  facet normal 0 -1 0
    outer loop
      vertex 0 0 9.3
      vertex 3.1721 0 4.87435
      vertex 3.19952 0 4.98383
    endloop
  endfacet
  facet normal 0 -1 0
    outer loop
      vertex 0 0 9.3
      vertex 3.15554 0 4.76272
      vertex 3.1721 0 4.87435
    endloop
  endfacet
  facet normal 0 -1 0
    outer loop
      vertex 0 0 9.3
      vertex 3.15 0 4.65
      vertex 3.15554 0 4.76272
    endloop
  endfacet
  facet normal 0 -1 0
    outer loop
      vertex 0 0 0
      vertex 3.15 0 4.65
      vertex 0 0 9.3
    endloop
  endfacet
  facet normal 0 -1 -0
    outer loop
      vertex 3.15 0 4.65
      vertex 0 0 0
      vertex 3.15554 0 4.53728
    endloop
  endfacet
  facet normal 0 -1 -0
    outer loop
      vertex 3.15554 0 4.53728
      vertex 0 0 0
      vertex 3.1721 0 4.42565
    endloop
  endfacet
  facet normal 0 -1 -0
    outer loop
      vertex 3.1721 0 4.42565
      vertex 0 0 0
      vertex 3.19952 0 4.31617
    endloop
  endfacet
  facet normal 0 -1 -0
    outer loop
      vertex 3.19952 0 4.31617
      vertex 0 0 0
      vertex 3.23754 0 4.20991
    endloop
  endfacet
  facet normal 0 -1 -0
    outer loop
      vertex 3.23754 0 4.20991
      vertex 0 0 0
      vertex 3.28579 0 4.10789
    endloop
  endfacet
  facet normal 0 -1 0
    outer loop
      vertex 16.0756 0 3.5221
      vertex 20.6 0 0
      vertex 16.1873 0 3.50554
    endloop
  endfacet
  facet normal 0 -1 -0
    outer loop
      vertex 4.18728 0 3.50554
      vertex 0 0 0
      vertex 4.3 0 3.5
    endloop
  endfacet
  facet normal 0 -1 -0
    outer loop
      vertex 4.07565 0 3.5221
      vertex 0 0 0
      vertex 4.18728 0 3.50554
    endloop
  endfacet
  facet normal 0 -1 -0
    outer loop
      vertex 3.96617 0 3.54952
      vertex 0 0 0
      vertex 4.07565 0 3.5221
    endloop
  endfacet
  facet normal 0 -1 -0
    outer loop
      vertex 3.85991 0 3.58754
      vertex 0 0 0
      vertex 3.96617 0 3.54952
    endloop
  endfacet
  facet normal 0 -1 -0
    outer loop
      vertex 3.75789 0 3.63579
      vertex 0 0 0
      vertex 3.85991 0 3.58754
    endloop
  endfacet
  facet normal 0 -1 -0
    outer loop
      vertex 3.66109 0 3.69381
      vertex 0 0 0
      vertex 3.75789 0 3.63579
    endloop
  endfacet
  facet normal 0 -1 -0
    outer loop
      vertex 3.57045 0 3.76104
      vertex 0 0 0
      vertex 3.66109 0 3.69381
    endloop
  endfacet
  facet normal 0 -1 -0
    outer loop
      vertex 3.48683 0 3.83683
      vertex 0 0 0
      vertex 3.57045 0 3.76104
    endloop
  endfacet
  facet normal 0 -1 -0
    outer loop
      vertex 3.41104 0 3.92045
      vertex 0 0 0
      vertex 3.48683 0 3.83683
    endloop
  endfacet
  facet normal 0 -1 -0
    outer loop
      vertex 3.34381 0 4.01109
      vertex 0 0 0
      vertex 3.41104 0 3.92045
    endloop
  endfacet
  facet normal 0 -1 -0
    outer loop
      vertex 3.28579 0 4.10789
      vertex 0 0 0
      vertex 3.34381 0 4.01109
    endloop
  endfacet
  facet normal 0 -1 0
    outer loop
      vertex 4.52435 0 5.7779
      vertex 0 0 9.3
      vertex 4.41272 0 5.79446
    endloop
  endfacet
  facet normal 0 -1 0
    outer loop
      vertex 16.4127 0 5.79446
      vertex 20.6 0 9.3
      vertex 16.3 0 5.8
    endloop
  endfacet
  facet normal 0 -1 0
    outer loop
      vertex 16.5244 0 5.7779
      vertex 20.6 0 9.3
      vertex 16.4127 0 5.79446
    endloop
  endfacet
  facet normal 0 -1 0
    outer loop
      vertex 16.6338 0 5.75048
      vertex 20.6 0 9.3
      vertex 16.5244 0 5.7779
    endloop
  endfacet
  facet normal 0 -1 0
    outer loop
      vertex 16.7401 0 5.71246
      vertex 20.6 0 9.3
      vertex 16.6338 0 5.75048
    endloop
  endfacet
  facet normal 0 -1 0
    outer loop
      vertex 16.8421 0 5.66421
      vertex 20.6 0 9.3
      vertex 16.7401 0 5.71246
    endloop
  endfacet
  facet normal 0 -1 0
    outer loop
      vertex 16.9389 0 5.60619
      vertex 20.6 0 9.3
      vertex 16.8421 0 5.66421
    endloop
  endfacet
  facet normal 0 -1 0
    outer loop
      vertex 17.0296 0 5.53896
      vertex 20.6 0 9.3
      vertex 16.9389 0 5.60619
    endloop
  endfacet
  facet normal 0 -1 0
    outer loop
      vertex 17.1132 0 5.46317
      vertex 20.6 0 9.3
      vertex 17.0296 0 5.53896
    endloop
  endfacet
  facet normal 0 -1 0
    outer loop
      vertex 17.189 0 5.37955
      vertex 20.6 0 9.3
      vertex 17.1132 0 5.46317
    endloop
  endfacet
  facet normal 0 -1 0
    outer loop
      vertex 17.2562 0 5.28891
      vertex 20.6 0 9.3
      vertex 17.189 0 5.37955
    endloop
  endfacet
  facet normal 0 -1 0
    outer loop
      vertex 17.3142 0 5.19211
      vertex 20.6 0 9.3
      vertex 17.2562 0 5.28891
    endloop
  endfacet
  facet normal 0 -1 0
    outer loop
      vertex 17.3625 0 5.09009
      vertex 20.6 0 9.3
      vertex 17.3142 0 5.19211
    endloop
  endfacet
  facet normal 0 -1 0
    outer loop
      vertex 17.4005 0 4.98383
      vertex 20.6 0 9.3
      vertex 17.3625 0 5.09009
    endloop
  endfacet
  facet normal 0 -1 0
    outer loop
      vertex 17.4279 0 4.87435
      vertex 20.6 0 9.3
      vertex 17.4005 0 4.98383
    endloop
  endfacet
  facet normal 0 -1 0
    outer loop
      vertex 17.4445 0 4.76272
      vertex 20.6 0 9.3
      vertex 17.4279 0 4.87435
    endloop
  endfacet
  facet normal 0 -1 0
    outer loop
      vertex 17.45 0 4.65
      vertex 20.6 0 9.3
      vertex 17.4445 0 4.76272
    endloop
  endfacet
  facet normal 0 -1 0
    outer loop
      vertex 20.6 0 0
      vertex 17.45 0 4.65
      vertex 17.4445 0 4.53728
    endloop
  endfacet
  facet normal 0 -1 0
    outer loop
      vertex 20.6 0 0
      vertex 17.4445 0 4.53728
      vertex 17.4279 0 4.42565
    endloop
  endfacet
  facet normal 0 -1 0
    outer loop
      vertex 20.6 0 0
      vertex 17.4279 0 4.42565
      vertex 17.4005 0 4.31617
    endloop
  endfacet
  facet normal 0 -1 0
    outer loop
      vertex 20.6 0 0
      vertex 17.4005 0 4.31617
      vertex 17.3625 0 4.20991
    endloop
  endfacet
  facet normal 0 -1 0
    outer loop
      vertex 20.6 0 0
      vertex 17.3625 0 4.20991
      vertex 17.3142 0 4.10789
    endloop
  endfacet
  facet normal 0 -1 0
    outer loop
      vertex 20.6 0 0
      vertex 17.3142 0 4.10789
      vertex 17.2562 0 4.01109
    endloop
  endfacet
  facet normal 0 -1 0
    outer loop
      vertex 16.1873 0 3.50554
      vertex 20.6 0 0
      vertex 16.3 0 3.5
    endloop
  endfacet
  facet normal 0 -1 0
    outer loop
      vertex 16.3 0 3.5
      vertex 20.6 0 0
      vertex 16.4127 0 3.50554
    endloop
  endfacet
  facet normal 0 -1 0
    outer loop
      vertex 17.45 0 4.65
      vertex 20.6 0 0
      vertex 20.6 0 9.3
    endloop
  endfacet
  facet normal 0 -1 0
    outer loop
      vertex 17.189 0 3.92045
      vertex 20.6 0 0
      vertex 17.2562 0 4.01109
    endloop
  endfacet
  facet normal 0 -1 0
    outer loop
      vertex 17.1132 0 3.83683
      vertex 20.6 0 0
      vertex 17.189 0 3.92045
    endloop
  endfacet
  facet normal 0 -1 0
    outer loop
      vertex 17.0296 0 3.76104
      vertex 20.6 0 0
      vertex 17.1132 0 3.83683
    endloop
  endfacet
  facet normal 0 -1 0
    outer loop
      vertex 16.9389 0 3.69381
      vertex 20.6 0 0
      vertex 17.0296 0 3.76104
    endloop
  endfacet
  facet normal 0 -1 0
    outer loop
      vertex 16.8421 0 3.63579
      vertex 20.6 0 0
      vertex 16.9389 0 3.69381
    endloop
  endfacet
  facet normal 0 -1 0
    outer loop
      vertex 16.7401 0 3.58754
      vertex 20.6 0 0
      vertex 16.8421 0 3.63579
    endloop
  endfacet
  facet normal 0 -1 0
    outer loop
      vertex 16.6338 0 3.54952
      vertex 20.6 0 0
      vertex 16.7401 0 3.58754
    endloop
  endfacet
  facet normal 0 -1 0
    outer loop
      vertex 16.5244 0 3.5221
      vertex 20.6 0 0
      vertex 16.6338 0 3.54952
    endloop
  endfacet
  facet normal 0 -1 0
    outer loop
      vertex 16.4127 0 3.50554
      vertex 20.6 0 0
      vertex 16.5244 0 3.5221
    endloop
  endfacet
  facet normal 1 -0 0
    outer loop
      vertex 1 1 9.3
      vertex 1 27.5 2
      vertex 1 27.5 9.3
    endloop
  endfacet
  facet normal 1 0 0
    outer loop
      vertex 1 27.5 2
      vertex 1 1 9.3
      vertex 1 1 2
    endloop
  endfacet
  facet normal -1 0 0
    outer loop
      vertex 19.6 1 2
      vertex 19.6 27.5 9.3
      vertex 19.6 27.5 2
    endloop
  endfacet
  facet normal -1 -0 0
    outer loop
      vertex 19.6 27.5 9.3
      vertex 19.6 1 2
      vertex 19.6 1 9.3
    endloop
  endfacet
  facet normal 0 -1 0
    outer loop
      vertex 1 27.5 2
      vertex 19.6 27.5 9.3
      vertex 1 27.5 9.3
    endloop
  endfacet
  facet normal 0 -1 -0
    outer loop
      vertex 19.6 27.5 9.3
      vertex 1 27.5 2
      vertex 19.6 27.5 2
    endloop
  endfacet
  facet normal -0 0 1
    outer loop
      vertex 1 27.5 2
      vertex 19.6 1 2
      vertex 19.6 27.5 2
    endloop
  endfacet
  facet normal 0 0 1
    outer loop
      vertex 19.6 1 2
      vertex 1 27.5 2
      vertex 1 1 2
    endloop
  endfacet
  facet normal 0 1 0
    outer loop
      vertex 15.9662 1 5.75048
      vertex 19.6 1 9.3
      vertex 16.0756 1 5.7779
    endloop
  endfacet
  facet normal 0 1 0
    outer loop
      vertex 1 1 9.3
      vertex 4.41272 1 5.79446
      vertex 4.3 1 5.8
    endloop
  endfacet
  facet normal 0 1 0
    outer loop
      vertex 15.8599 1 5.71246
      vertex 19.6 1 9.3
      vertex 15.9662 1 5.75048
    endloop
  endfacet
  facet normal 0 1 0
    outer loop
      vertex 1 1 9.3
      vertex 4.52435 1 5.7779
      vertex 4.41272 1 5.79446
    endloop
  endfacet
  facet normal 0 1 0
    outer loop
      vertex 15.7579 1 5.66421
      vertex 19.6 1 9.3
      vertex 15.8599 1 5.71246
    endloop
  endfacet
  facet normal 0 1 0
    outer loop
      vertex 1 1 9.3
      vertex 4.63383 1 5.75048
      vertex 4.52435 1 5.7779
    endloop
  endfacet
  facet normal 0 1 0
    outer loop
      vertex 19.6 1 9.3
      vertex 15.7579 1 5.66421
      vertex 1 1 9.3
    endloop
  endfacet
  facet normal 0 1 0
    outer loop
      vertex 1 1 9.3
      vertex 4.74009 1 5.71246
      vertex 4.63383 1 5.75048
    endloop
  endfacet
  facet normal 0 1 -0
    outer loop
      vertex 4.84211 1 5.66421
      vertex 1 1 9.3
      vertex 15.7579 1 5.66421
    endloop
  endfacet
  facet normal 0 1 0
    outer loop
      vertex 1 1 9.3
      vertex 4.84211 1 5.66421
      vertex 4.74009 1 5.71246
    endloop
  endfacet
  facet normal 0 1 -0
    outer loop
      vertex 15.6611 1 5.60619
      vertex 4.84211 1 5.66421
      vertex 15.7579 1 5.66421
    endloop
  endfacet
  facet normal 0 1 0
    outer loop
      vertex 15.6611 1 5.60619
      vertex 4.93891 1 5.60619
      vertex 4.84211 1 5.66421
    endloop
  endfacet
  facet normal 0 1 -0
    outer loop
      vertex 15.5704 1 5.53896
      vertex 4.93891 1 5.60619
      vertex 15.6611 1 5.60619
    endloop
  endfacet
  facet normal 0 1 0
    outer loop
      vertex 15.5704 1 5.53896
      vertex 5.02955 1 5.53896
      vertex 4.93891 1 5.60619
    endloop
  endfacet
  facet normal 0 1 -0
    outer loop
      vertex 15.4868 1 5.46317
      vertex 5.02955 1 5.53896
      vertex 15.5704 1 5.53896
    endloop
  endfacet
  facet normal 0 1 0
    outer loop
      vertex 15.4868 1 5.46317
      vertex 5.11317 1 5.46317
      vertex 5.02955 1 5.53896
    endloop
  endfacet
  facet normal 0 1 -0
    outer loop
      vertex 15.411 1 5.37955
      vertex 5.11317 1 5.46317
      vertex 15.4868 1 5.46317
    endloop
  endfacet
  facet normal 0 1 0
    outer loop
      vertex 15.411 1 5.37955
      vertex 5.18896 1 5.37955
      vertex 5.11317 1 5.46317
    endloop
  endfacet
  facet normal 0 1 -0
    outer loop
      vertex 15.3438 1 5.28891
      vertex 5.18896 1 5.37955
      vertex 15.411 1 5.37955
    endloop
  endfacet
  facet normal 0 1 0
    outer loop
      vertex 15.3438 1 5.28891
      vertex 5.25619 1 5.28891
      vertex 5.18896 1 5.37955
    endloop
  endfacet
  facet normal 0 1 -0
    outer loop
      vertex 15.2858 1 5.19211
      vertex 5.25619 1 5.28891
      vertex 15.3438 1 5.28891
    endloop
  endfacet
  facet normal 0 1 0
    outer loop
      vertex 15.2858 1 5.19211
      vertex 5.31421 1 5.19211
      vertex 5.25619 1 5.28891
    endloop
  endfacet
  facet normal 0 1 -0
    outer loop
      vertex 15.2375 1 5.09009
      vertex 5.31421 1 5.19211
      vertex 15.2858 1 5.19211
    endloop
  endfacet
  facet normal 0 1 0
    outer loop
      vertex 15.2375 1 5.09009
      vertex 5.36246 1 5.09009
      vertex 5.31421 1 5.19211
    endloop
  endfacet
  facet normal 0 1 -0
    outer loop
      vertex 15.1995 1 4.98383
      vertex 5.36246 1 5.09009
      vertex 15.2375 1 5.09009
    endloop
  endfacet
  facet normal 0 1 0
    outer loop
      vertex 15.1995 1 4.98383
      vertex 5.40048 1 4.98383
      vertex 5.36246 1 5.09009
    endloop
  endfacet
  facet normal 0 1 -0
    outer loop
      vertex 15.1721 1 4.87435
      vertex 5.40048 1 4.98383
      vertex 15.1995 1 4.98383
    endloop
  endfacet
  facet normal 0 1 0
    outer loop
      vertex 15.1721 1 4.87435
      vertex 5.4279 1 4.87435
      vertex 5.40048 1 4.98383
    endloop
  endfacet
  facet normal 0 1 -0
    outer loop
      vertex 15.1555 1 4.76272
      vertex 5.4279 1 4.87435
      vertex 15.1721 1 4.87435
    endloop
  endfacet
  facet normal 0 1 0
    outer loop
      vertex 15.1555 1 4.76272
      vertex 5.44446 1 4.76272
      vertex 5.4279 1 4.87435
    endloop
  endfacet
  facet normal 0 1 -0
    outer loop
      vertex 15.15 1 4.65
      vertex 5.44446 1 4.76272
      vertex 15.1555 1 4.76272
    endloop
  endfacet
  facet normal 0 1 0
    outer loop
      vertex 15.15 1 4.65
      vertex 5.45 1 4.65
      vertex 5.44446 1 4.76272
    endloop
  endfacet
  facet normal 0 1 0
    outer loop
      vertex 15.1555 1 4.53728
      vertex 5.45 1 4.65
      vertex 15.15 1 4.65
    endloop
  endfacet
  facet normal 0 1 0
    outer loop
      vertex 15.1555 1 4.53728
      vertex 5.44446 1 4.53728
      vertex 5.45 1 4.65
    endloop
  endfacet
  facet normal 0 1 0
    outer loop
      vertex 15.1721 1 4.42565
      vertex 5.44446 1 4.53728
      vertex 15.1555 1 4.53728
    endloop
  endfacet
  facet normal 0 1 0
    outer loop
      vertex 15.1721 1 4.42565
      vertex 5.4279 1 4.42565
      vertex 5.44446 1 4.53728
    endloop
  endfacet
  facet normal 0 1 0
    outer loop
      vertex 15.1995 1 4.31617
      vertex 5.4279 1 4.42565
      vertex 15.1721 1 4.42565
    endloop
  endfacet
  facet normal 0 1 0
    outer loop
      vertex 15.1995 1 4.31617
      vertex 5.40048 1 4.31617
      vertex 5.4279 1 4.42565
    endloop
  endfacet
  facet normal 0 1 0
    outer loop
      vertex 15.2375 1 4.20991
      vertex 5.40048 1 4.31617
      vertex 15.1995 1 4.31617
    endloop
  endfacet
  facet normal 0 1 0
    outer loop
      vertex 15.2375 1 4.20991
      vertex 5.36246 1 4.20991
      vertex 5.40048 1 4.31617
    endloop
  endfacet
  facet normal 0 1 0
    outer loop
      vertex 15.2858 1 4.10789
      vertex 5.36246 1 4.20991
      vertex 15.2375 1 4.20991
    endloop
  endfacet
  facet normal 0 1 0
    outer loop
      vertex 15.2858 1 4.10789
      vertex 5.31421 1 4.10789
      vertex 5.36246 1 4.20991
    endloop
  endfacet
  facet normal 0 1 0
    outer loop
      vertex 15.3438 1 4.01109
      vertex 5.31421 1 4.10789
      vertex 15.2858 1 4.10789
    endloop
  endfacet
  facet normal 0 1 0
    outer loop
      vertex 15.3438 1 4.01109
      vertex 5.25619 1 4.01109
      vertex 5.31421 1 4.10789
    endloop
  endfacet
  facet normal 0 1 0
    outer loop
      vertex 15.411 1 3.92045
      vertex 5.25619 1 4.01109
      vertex 15.3438 1 4.01109
    endloop
  endfacet
  facet normal 0 1 0
    outer loop
      vertex 15.411 1 3.92045
      vertex 5.18896 1 3.92045
      vertex 5.25619 1 4.01109
    endloop
  endfacet
  facet normal 0 1 0
    outer loop
      vertex 15.4868 1 3.83683
      vertex 5.18896 1 3.92045
      vertex 15.411 1 3.92045
    endloop
  endfacet
  facet normal 0 1 0
    outer loop
      vertex 15.4868 1 3.83683
      vertex 5.11317 1 3.83683
      vertex 5.18896 1 3.92045
    endloop
  endfacet
  facet normal 0 1 0
    outer loop
      vertex 15.5704 1 3.76104
      vertex 5.11317 1 3.83683
      vertex 15.4868 1 3.83683
    endloop
  endfacet
  facet normal 0 1 0
    outer loop
      vertex 15.5704 1 3.76104
      vertex 5.02955 1 3.76104
      vertex 5.11317 1 3.83683
    endloop
  endfacet
  facet normal 0 1 0
    outer loop
      vertex 15.6611 1 3.69381
      vertex 5.02955 1 3.76104
      vertex 15.5704 1 3.76104
    endloop
  endfacet
  facet normal 0 1 0
    outer loop
      vertex 15.6611 1 3.69381
      vertex 4.93891 1 3.69381
      vertex 5.02955 1 3.76104
    endloop
  endfacet
  facet normal 0 1 0
    outer loop
      vertex 15.7579 1 3.63579
      vertex 4.93891 1 3.69381
      vertex 15.6611 1 3.69381
    endloop
  endfacet
  facet normal 0 1 0
    outer loop
      vertex 15.7579 1 3.63579
      vertex 4.84211 1 3.63579
      vertex 4.93891 1 3.69381
    endloop
  endfacet
  facet normal 0 1 0
    outer loop
      vertex 15.8599 1 3.58754
      vertex 4.84211 1 3.63579
      vertex 15.7579 1 3.63579
    endloop
  endfacet
  facet normal 0 1 0
    outer loop
      vertex 15.8599 1 3.58754
      vertex 4.74009 1 3.58754
      vertex 4.84211 1 3.63579
    endloop
  endfacet
  facet normal 0 1 0
    outer loop
      vertex 15.9662 1 3.54952
      vertex 4.74009 1 3.58754
      vertex 15.8599 1 3.58754
    endloop
  endfacet
  facet normal 0 1 0
    outer loop
      vertex 15.9662 1 3.54952
      vertex 4.63383 1 3.54952
      vertex 4.74009 1 3.58754
    endloop
  endfacet
  facet normal 0 1 0
    outer loop
      vertex 19.6 1 2
      vertex 15.9662 1 3.54952
      vertex 16.0756 1 3.5221
    endloop
  endfacet
  facet normal 0 1 0
    outer loop
      vertex 15.9662 1 3.54952
      vertex 19.6 1 2
      vertex 4.63383 1 3.54952
    endloop
  endfacet
  facet normal 0 1 0
    outer loop
      vertex 19.6 1 2
      vertex 16.0756 1 3.5221
      vertex 16.1873 1 3.50554
    endloop
  endfacet
  facet normal 0 1 0
    outer loop
      vertex 1 1 2
      vertex 4.63383 1 3.54952
      vertex 19.6 1 2
    endloop
  endfacet
  facet normal 0 1 0
    outer loop
      vertex 19.6 1 2
      vertex 16.1873 1 3.50554
      vertex 16.3 1 3.5
    endloop
  endfacet
  facet normal 0 1 0
    outer loop
      vertex 4.63383 1 3.54952
      vertex 1 1 2
      vertex 4.52435 1 3.5221
    endloop
  endfacet
  facet normal 0 1 0
    outer loop
      vertex 16.1873 1 5.79446
      vertex 19.6 1 9.3
      vertex 16.3 1 5.8
    endloop
  endfacet
  facet normal 0 1 0
    outer loop
      vertex 19.6 1 9.3
      vertex 16.4127 1 5.79446
      vertex 16.3 1 5.8
    endloop
  endfacet
  facet normal 0 1 0
    outer loop
      vertex 19.6 1 9.3
      vertex 16.5244 1 5.7779
      vertex 16.4127 1 5.79446
    endloop
  endfacet
  facet normal 0 1 0
    outer loop
      vertex 19.6 1 9.3
      vertex 16.6338 1 5.75048
      vertex 16.5244 1 5.7779
    endloop
  endfacet
  facet normal 0 1 0
    outer loop
      vertex 19.6 1 9.3
      vertex 16.7401 1 5.71246
      vertex 16.6338 1 5.75048
    endloop
  endfacet
  facet normal 0 1 0
    outer loop
      vertex 19.6 1 9.3
      vertex 16.8421 1 5.66421
      vertex 16.7401 1 5.71246
    endloop
  endfacet
  facet normal 0 1 0
    outer loop
      vertex 19.6 1 9.3
      vertex 16.9389 1 5.60619
      vertex 16.8421 1 5.66421
    endloop
  endfacet
  facet normal 0 1 0
    outer loop
      vertex 19.6 1 9.3
      vertex 17.0296 1 5.53896
      vertex 16.9389 1 5.60619
    endloop
  endfacet
  facet normal 0 1 0
    outer loop
      vertex 19.6 1 9.3
      vertex 17.1132 1 5.46317
      vertex 17.0296 1 5.53896
    endloop
  endfacet
  facet normal 0 1 0
    outer loop
      vertex 19.6 1 9.3
      vertex 17.189 1 5.37955
      vertex 17.1132 1 5.46317
    endloop
  endfacet
  facet normal 0 1 0
    outer loop
      vertex 19.6 1 9.3
      vertex 17.2562 1 5.28891
      vertex 17.189 1 5.37955
    endloop
  endfacet
  facet normal 0 1 0
    outer loop
      vertex 19.6 1 9.3
      vertex 17.3142 1 5.19211
      vertex 17.2562 1 5.28891
    endloop
  endfacet
  facet normal 0 1 0
    outer loop
      vertex 19.6 1 9.3
      vertex 17.3625 1 5.09009
      vertex 17.3142 1 5.19211
    endloop
  endfacet
  facet normal 0 1 0
    outer loop
      vertex 19.6 1 9.3
      vertex 17.4005 1 4.98383
      vertex 17.3625 1 5.09009
    endloop
  endfacet
  facet normal 0 1 0
    outer loop
      vertex 19.6 1 9.3
      vertex 17.4279 1 4.87435
      vertex 17.4005 1 4.98383
    endloop
  endfacet
  facet normal 0 1 -0
    outer loop
      vertex 19.6 1 2
      vertex 17.4279 1 4.87435
      vertex 19.6 1 9.3
    endloop
  endfacet
  facet normal 0 1 0
    outer loop
      vertex 17.4279 1 4.87435
      vertex 19.6 1 2
      vertex 17.4445 1 4.76272
    endloop
  endfacet
  facet normal 0 1 0
    outer loop
      vertex 17.4445 1 4.76272
      vertex 19.6 1 2
      vertex 17.45 1 4.65
    endloop
  endfacet
  facet normal 0 1 0
    outer loop
      vertex 17.45 1 4.65
      vertex 19.6 1 2
      vertex 17.4445 1 4.53728
    endloop
  endfacet
  facet normal 0 1 0
    outer loop
      vertex 17.4445 1 4.53728
      vertex 19.6 1 2
      vertex 17.4279 1 4.42565
    endloop
  endfacet
  facet normal 0 1 0
    outer loop
      vertex 17.4279 1 4.42565
      vertex 19.6 1 2
      vertex 17.4005 1 4.31617
    endloop
  endfacet
  facet normal 0 1 0
    outer loop
      vertex 4.52435 1 3.5221
      vertex 1 1 2
      vertex 4.41272 1 3.50554
    endloop
  endfacet
  facet normal 0 1 0
    outer loop
      vertex 16.4127 1 3.50554
      vertex 19.6 1 2
      vertex 16.3 1 3.5
    endloop
  endfacet
  facet normal 0 1 0
    outer loop
      vertex 16.5244 1 3.5221
      vertex 19.6 1 2
      vertex 16.4127 1 3.50554
    endloop
  endfacet
  facet normal 0 1 0
    outer loop
      vertex 16.6338 1 3.54952
      vertex 19.6 1 2
      vertex 16.5244 1 3.5221
    endloop
  endfacet
  facet normal 0 1 0
    outer loop
      vertex 16.7401 1 3.58754
      vertex 19.6 1 2
      vertex 16.6338 1 3.54952
    endloop
  endfacet
  facet normal 0 1 0
    outer loop
      vertex 16.8421 1 3.63579
      vertex 19.6 1 2
      vertex 16.7401 1 3.58754
    endloop
  endfacet
  facet normal 0 1 0
    outer loop
      vertex 16.9389 1 3.69381
      vertex 19.6 1 2
      vertex 16.8421 1 3.63579
    endloop
  endfacet
  facet normal 0 1 0
    outer loop
      vertex 17.0296 1 3.76104
      vertex 19.6 1 2
      vertex 16.9389 1 3.69381
    endloop
  endfacet
  facet normal 0 1 0
    outer loop
      vertex 17.1132 1 3.83683
      vertex 19.6 1 2
      vertex 17.0296 1 3.76104
    endloop
  endfacet
  facet normal 0 1 0
    outer loop
      vertex 17.189 1 3.92045
      vertex 19.6 1 2
      vertex 17.1132 1 3.83683
    endloop
  endfacet
  facet normal 0 1 0
    outer loop
      vertex 17.2562 1 4.01109
      vertex 19.6 1 2
      vertex 17.189 1 3.92045
    endloop
  endfacet
  facet normal 0 1 0
    outer loop
      vertex 17.3142 1 4.10789
      vertex 19.6 1 2
      vertex 17.2562 1 4.01109
    endloop
  endfacet
  facet normal 0 1 0
    outer loop
      vertex 17.3625 1 4.20991
      vertex 19.6 1 2
      vertex 17.3142 1 4.10789
    endloop
  endfacet
  facet normal 0 1 0
    outer loop
      vertex 17.4005 1 4.31617
      vertex 19.6 1 2
      vertex 17.3625 1 4.20991
    endloop
  endfacet
  facet normal 0 1 0
    outer loop
      vertex 16.0756 1 5.7779
      vertex 19.6 1 9.3
      vertex 16.1873 1 5.79446
    endloop
  endfacet
  facet normal 0 1 -0
    outer loop
      vertex 4.18728 1 5.79446
      vertex 1 1 9.3
      vertex 4.3 1 5.8
    endloop
  endfacet
  facet normal 0 1 -0
    outer loop
      vertex 4.07565 1 5.7779
      vertex 1 1 9.3
      vertex 4.18728 1 5.79446
    endloop
  endfacet
  facet normal 0 1 -0
    outer loop
      vertex 3.96617 1 5.75048
      vertex 1 1 9.3
      vertex 4.07565 1 5.7779
    endloop
  endfacet
  facet normal 0 1 -0
    outer loop
      vertex 3.85991 1 5.71246
      vertex 1 1 9.3
      vertex 3.96617 1 5.75048
    endloop
  endfacet
  facet normal 0 1 -0
    outer loop
      vertex 3.75789 1 5.66421
      vertex 1 1 9.3
      vertex 3.85991 1 5.71246
    endloop
  endfacet
  facet normal 0 1 -0
    outer loop
      vertex 3.66109 1 5.60619
      vertex 1 1 9.3
      vertex 3.75789 1 5.66421
    endloop
  endfacet
  facet normal 0 1 -0
    outer loop
      vertex 3.57045 1 5.53896
      vertex 1 1 9.3
      vertex 3.66109 1 5.60619
    endloop
  endfacet
  facet normal 0 1 -0
    outer loop
      vertex 3.48683 1 5.46317
      vertex 1 1 9.3
      vertex 3.57045 1 5.53896
    endloop
  endfacet
  facet normal 0 1 -0
    outer loop
      vertex 3.41104 1 5.37955
      vertex 1 1 9.3
      vertex 3.48683 1 5.46317
    endloop
  endfacet
  facet normal 0 1 -0
    outer loop
      vertex 3.34381 1 5.28891
      vertex 1 1 9.3
      vertex 3.41104 1 5.37955
    endloop
  endfacet
  facet normal 0 1 -0
    outer loop
      vertex 3.28579 1 5.19211
      vertex 1 1 9.3
      vertex 3.34381 1 5.28891
    endloop
  endfacet
  facet normal 0 1 -0
    outer loop
      vertex 3.23754 1 5.09009
      vertex 1 1 9.3
      vertex 3.28579 1 5.19211
    endloop
  endfacet
  facet normal 0 1 -0
    outer loop
      vertex 3.19952 1 4.98383
      vertex 1 1 9.3
      vertex 3.23754 1 5.09009
    endloop
  endfacet
  facet normal 0 1 -0
    outer loop
      vertex 3.1721 1 4.87435
      vertex 1 1 9.3
      vertex 3.19952 1 4.98383
    endloop
  endfacet
  facet normal 0 1 0
    outer loop
      vertex 1 1 2
      vertex 3.1721 1 4.87435
      vertex 3.15554 1 4.76272
    endloop
  endfacet
  facet normal 0 1 0
    outer loop
      vertex 1 1 2
      vertex 3.15554 1 4.76272
      vertex 3.15 1 4.65
    endloop
  endfacet
  facet normal 0 1 0
    outer loop
      vertex 1 1 2
      vertex 3.15 1 4.65
      vertex 3.15554 1 4.53728
    endloop
  endfacet
  facet normal 0 1 0
    outer loop
      vertex 1 1 2
      vertex 3.15554 1 4.53728
      vertex 3.1721 1 4.42565
    endloop
  endfacet
  facet normal 0 1 0
    outer loop
      vertex 1 1 2
      vertex 3.1721 1 4.42565
      vertex 3.19952 1 4.31617
    endloop
  endfacet
  facet normal 0 1 0
    outer loop
      vertex 1 1 2
      vertex 3.19952 1 4.31617
      vertex 3.23754 1 4.20991
    endloop
  endfacet
  facet normal 0 1 0
    outer loop
      vertex 4.41272 1 3.50554
      vertex 1 1 2
      vertex 4.3 1 3.5
    endloop
  endfacet
  facet normal 0 1 0
    outer loop
      vertex 3.1721 1 4.87435
      vertex 1 1 2
      vertex 1 1 9.3
    endloop
  endfacet
  facet normal 0 1 0
    outer loop
      vertex 3.28579 1 4.10789
      vertex 1 1 2
      vertex 3.23754 1 4.20991
    endloop
  endfacet
  facet normal 0 1 0
    outer loop
      vertex 3.34381 1 4.01109
      vertex 1 1 2
      vertex 3.28579 1 4.10789
    endloop
  endfacet
  facet normal 0 1 0
    outer loop
      vertex 3.41104 1 3.92045
      vertex 1 1 2
      vertex 3.34381 1 4.01109
    endloop
  endfacet
  facet normal 0 1 0
    outer loop
      vertex 3.48683 1 3.83683
      vertex 1 1 2
      vertex 3.41104 1 3.92045
    endloop
  endfacet
  facet normal 0 1 0
    outer loop
      vertex 3.57045 1 3.76104
      vertex 1 1 2
      vertex 3.48683 1 3.83683
    endloop
  endfacet
  facet normal 0 1 0
    outer loop
      vertex 3.66109 1 3.69381
      vertex 1 1 2
      vertex 3.57045 1 3.76104
    endloop
  endfacet
  facet normal 0 1 0
    outer loop
      vertex 3.75789 1 3.63579
      vertex 1 1 2
      vertex 3.66109 1 3.69381
    endloop
  endfacet
  facet normal 0 1 0
    outer loop
      vertex 3.85991 1 3.58754
      vertex 1 1 2
      vertex 3.75789 1 3.63579
    endloop
  endfacet
  facet normal 0 1 0
    outer loop
      vertex 3.96617 1 3.54952
      vertex 1 1 2
      vertex 3.85991 1 3.58754
    endloop
  endfacet
  facet normal 0 1 0
    outer loop
      vertex 4.07565 1 3.5221
      vertex 1 1 2
      vertex 3.96617 1 3.54952
    endloop
  endfacet
  facet normal 0 1 0
    outer loop
      vertex 4.18728 1 3.50554
      vertex 1 1 2
      vertex 4.07565 1 3.5221
    endloop
  endfacet
  facet normal 0 1 0
    outer loop
      vertex 4.3 1 3.5
      vertex 1 1 2
      vertex 4.18728 1 3.50554
    endloop
  endfacet
  facet normal -0.998795 0 -0.0490715
    outer loop
      vertex 5.45 0 4.65
      vertex 5.44446 1 4.76272
      vertex 5.45 1 4.65
    endloop
  endfacet
  facet normal -0.998795 -0 -0.0490715
    outer loop
      vertex 5.44446 1 4.76272
      vertex 5.45 0 4.65
      vertex 5.44446 0 4.76272
    endloop
  endfacet
  facet normal -0.998795 0 0.0490715
    outer loop
      vertex 5.44446 0 4.53728
      vertex 5.45 1 4.65
      vertex 5.44446 1 4.53728
    endloop
  endfacet
  facet normal -0.998795 0 0.0490715
    outer loop
      vertex 5.45 1 4.65
      vertex 5.44446 0 4.53728
      vertex 5.45 0 4.65
    endloop
  endfacet
  facet normal -0.514103 0 -0.857728
    outer loop
      vertex 4.84211 0 5.66421
      vertex 4.93891 1 5.60619
      vertex 4.93891 0 5.60619
    endloop
  endfacet
  facet normal -0.514103 0 -0.857728
    outer loop
      vertex 4.93891 1 5.60619
      vertex 4.84211 0 5.66421
      vertex 4.84211 1 5.66421
    endloop
  endfacet
  facet normal 0.427549 0 -0.903992
    outer loop
      vertex 3.75789 0 5.66421
      vertex 3.85991 1 5.71246
      vertex 3.85991 0 5.71246
    endloop
  endfacet
  facet normal 0.427549 0 -0.903992
    outer loop
      vertex 3.85991 1 5.71246
      vertex 3.75789 0 5.66421
      vertex 3.75789 1 5.66421
    endloop
  endfacet
  facet normal 0.941543 0 -0.336892
    outer loop
      vertex 3.23754 0 5.09009
      vertex 3.19952 1 4.98383
      vertex 3.23754 1 5.09009
    endloop
  endfacet
  facet normal 0.941543 0 -0.336892
    outer loop
      vertex 3.19952 1 4.98383
      vertex 3.23754 0 5.09009
      vertex 3.19952 0 4.98383
    endloop
  endfacet
  facet normal -0.970033 0 -0.242975
    outer loop
      vertex 5.4279 0 4.87435
      vertex 5.40048 1 4.98383
      vertex 5.4279 1 4.87435
    endloop
  endfacet
  facet normal -0.970033 -0 -0.242975
    outer loop
      vertex 5.40048 1 4.98383
      vertex 5.4279 0 4.87435
      vertex 5.40048 0 4.98383
    endloop
  endfacet
  facet normal 0.998796 -0 0.0490631
    outer loop
      vertex 3.15 0 4.65
      vertex 3.15554 1 4.53728
      vertex 3.15 1 4.65
    endloop
  endfacet
  facet normal 0.998796 0 0.0490631
    outer loop
      vertex 3.15554 1 4.53728
      vertex 3.15 0 4.65
      vertex 3.15554 0 4.53728
    endloop
  endfacet
  facet normal -0.941544 0 0.336889
    outer loop
      vertex 5.36246 0 4.20991
      vertex 5.40048 1 4.31617
      vertex 5.36246 1 4.20991
    endloop
  endfacet
  facet normal -0.941544 0 0.336889
    outer loop
      vertex 5.40048 1 4.31617
      vertex 5.36246 0 4.20991
      vertex 5.40048 0 4.31617
    endloop
  endfacet
  facet normal -0.803211 0 0.595694
    outer loop
      vertex 5.18896 0 3.92045
      vertex 5.25619 1 4.01109
      vertex 5.18896 1 3.92045
    endloop
  endfacet
  facet normal -0.803211 0 0.595694
    outer loop
      vertex 5.25619 1 4.01109
      vertex 5.18896 0 3.92045
      vertex 5.25619 0 4.01109
    endloop
  endfacet
  facet normal -0.740952 0 0.671558
    outer loop
      vertex 5.11317 0 3.83683
      vertex 5.18896 1 3.92045
      vertex 5.11317 1 3.83683
    endloop
  endfacet
  facet normal -0.740952 0 0.671558
    outer loop
      vertex 5.18896 1 3.92045
      vertex 5.11317 0 3.83683
      vertex 5.18896 0 3.92045
    endloop
  endfacet
  facet normal -0.0490631 0 0.998796
    outer loop
      vertex 4.3 1 3.5
      vertex 4.41272 0 3.50554
      vertex 4.41272 1 3.50554
    endloop
  endfacet
  facet normal -0.0490631 0 0.998796
    outer loop
      vertex 4.41272 0 3.50554
      vertex 4.3 1 3.5
      vertex 4.3 0 3.5
    endloop
  endfacet
  facet normal 0.427556 0 0.903989
    outer loop
      vertex 3.75789 1 3.63579
      vertex 3.85991 0 3.58754
      vertex 3.85991 1 3.58754
    endloop
  endfacet
  facet normal 0.427556 0 0.903989
    outer loop
      vertex 3.85991 0 3.58754
      vertex 3.75789 1 3.63579
      vertex 3.75789 0 3.63579
    endloop
  endfacet
  facet normal 0.85773 -0 0.514101
    outer loop
      vertex 3.28579 0 4.10789
      vertex 3.34381 1 4.01109
      vertex 3.28579 1 4.10789
    endloop
  endfacet
  facet normal 0.85773 0 0.514101
    outer loop
      vertex 3.34381 1 4.01109
      vertex 3.28579 0 4.10789
      vertex 3.34381 0 4.01109
    endloop
  endfacet
  facet normal -0.90399 0 -0.427553
    outer loop
      vertex 5.36246 0 5.09009
      vertex 5.31421 1 5.19211
      vertex 5.36246 1 5.09009
    endloop
  endfacet
  facet normal -0.90399 -0 -0.427553
    outer loop
      vertex 5.31421 1 5.19211
      vertex 5.36246 0 5.09009
      vertex 5.31421 0 5.19211
    endloop
  endfacet
  facet normal -0.941543 0 -0.336892
    outer loop
      vertex 5.40048 0 4.98383
      vertex 5.36246 1 5.09009
      vertex 5.40048 1 4.98383
    endloop
  endfacet
  facet normal -0.941543 -0 -0.336892
    outer loop
      vertex 5.36246 1 5.09009
      vertex 5.40048 0 4.98383
      vertex 5.36246 0 5.09009
    endloop
  endfacet
  facet normal -0.803211 0 -0.595694
    outer loop
      vertex 5.25619 0 5.28891
      vertex 5.18896 1 5.37955
      vertex 5.25619 1 5.28891
    endloop
  endfacet
  facet normal -0.803211 -0 -0.595694
    outer loop
      vertex 5.18896 1 5.37955
      vertex 5.25619 0 5.28891
      vertex 5.18896 0 5.37955
    endloop
  endfacet
  facet normal -0.671558 0 -0.740952
    outer loop
      vertex 5.02955 0 5.53896
      vertex 5.11317 1 5.46317
      vertex 5.11317 0 5.46317
    endloop
  endfacet
  facet normal -0.671558 0 -0.740952
    outer loop
      vertex 5.11317 1 5.46317
      vertex 5.02955 0 5.53896
      vertex 5.02955 1 5.53896
    endloop
  endfacet
  facet normal -0.740948 0 -0.671562
    outer loop
      vertex 5.18896 0 5.37955
      vertex 5.11317 1 5.46317
      vertex 5.18896 1 5.37955
    endloop
  endfacet
  facet normal -0.740948 -0 -0.671562
    outer loop
      vertex 5.11317 1 5.46317
      vertex 5.18896 0 5.37955
      vertex 5.11317 0 5.46317
    endloop
  endfacet
  facet normal 0.0490631 0 -0.998796
    outer loop
      vertex 4.18728 0 5.79446
      vertex 4.3 1 5.8
      vertex 4.3 0 5.8
    endloop
  endfacet
  facet normal 0.0490631 0 -0.998796
    outer loop
      vertex 4.3 1 5.8
      vertex 4.18728 0 5.79446
      vertex 4.18728 1 5.79446
    endloop
  endfacet
  facet normal -0.336892 0 -0.941543
    outer loop
      vertex 4.63383 0 5.75048
      vertex 4.74009 1 5.71246
      vertex 4.74009 0 5.71246
    endloop
  endfacet
  facet normal -0.336892 0 -0.941543
    outer loop
      vertex 4.74009 1 5.71246
      vertex 4.63383 0 5.75048
      vertex 4.63383 1 5.75048
    endloop
  endfacet
  facet normal -0.427549 0 -0.903992
    outer loop
      vertex 4.74009 0 5.71246
      vertex 4.84211 1 5.66421
      vertex 4.84211 0 5.66421
    endloop
  endfacet
  facet normal -0.427549 0 -0.903992
    outer loop
      vertex 4.84211 1 5.66421
      vertex 4.74009 0 5.71246
      vertex 4.74009 1 5.71246
    endloop
  endfacet
  facet normal -0.146732 0 -0.989176
    outer loop
      vertex 4.41272 0 5.79446
      vertex 4.52435 1 5.7779
      vertex 4.52435 0 5.7779
    endloop
  endfacet
  facet normal -0.146732 0 -0.989176
    outer loop
      vertex 4.52435 1 5.7779
      vertex 4.41272 0 5.79446
      vertex 4.41272 1 5.79446
    endloop
  endfacet
  facet normal 0.989176 0 -0.146732
    outer loop
      vertex 3.1721 0 4.87435
      vertex 3.15554 1 4.76272
      vertex 3.1721 1 4.87435
    endloop
  endfacet
  facet normal 0.989176 0 -0.146732
    outer loop
      vertex 3.15554 1 4.76272
      vertex 3.1721 0 4.87435
      vertex 3.15554 0 4.76272
    endloop
  endfacet
  facet normal 0.5957 0 -0.803207
    outer loop
      vertex 3.57045 0 5.53896
      vertex 3.66109 1 5.60619
      vertex 3.66109 0 5.60619
    endloop
  endfacet
  facet normal 0.5957 0 -0.803207
    outer loop
      vertex 3.66109 1 5.60619
      vertex 3.57045 0 5.53896
      vertex 3.57045 1 5.53896
    endloop
  endfacet
  facet normal 0.740948 0 -0.671562
    outer loop
      vertex 3.48683 0 5.46317
      vertex 3.41104 1 5.37955
      vertex 3.48683 1 5.46317
    endloop
  endfacet
  facet normal 0.740948 0 -0.671562
    outer loop
      vertex 3.41104 1 5.37955
      vertex 3.48683 0 5.46317
      vertex 3.41104 0 5.37955
    endloop
  endfacet
  facet normal 0.671562 0 -0.740948
    outer loop
      vertex 3.48683 0 5.46317
      vertex 3.57045 1 5.53896
      vertex 3.57045 0 5.53896
    endloop
  endfacet
  facet normal 0.671562 0 -0.740948
    outer loop
      vertex 3.57045 1 5.53896
      vertex 3.48683 0 5.46317
      vertex 3.48683 1 5.46317
    endloop
  endfacet
  facet normal -0.242981 0 0.970031
    outer loop
      vertex 4.52435 1 3.5221
      vertex 4.63383 0 3.54952
      vertex 4.63383 1 3.54952
    endloop
  endfacet
  facet normal -0.242981 0 0.970031
    outer loop
      vertex 4.63383 0 3.54952
      vertex 4.52435 1 3.5221
      vertex 4.52435 0 3.5221
    endloop
  endfacet
  facet normal -0.336885 0 0.941546
    outer loop
      vertex 4.63383 1 3.54952
      vertex 4.74009 0 3.58754
      vertex 4.74009 1 3.58754
    endloop
  endfacet
  facet normal -0.336885 0 0.941546
    outer loop
      vertex 4.74009 0 3.58754
      vertex 4.63383 1 3.54952
      vertex 4.63383 0 3.54952
    endloop
  endfacet
  facet normal 0.146732 0 0.989176
    outer loop
      vertex 4.07565 1 3.5221
      vertex 4.18728 0 3.50554
      vertex 4.18728 1 3.50554
    endloop
  endfacet
  facet normal 0.146732 0 0.989176
    outer loop
      vertex 4.18728 0 3.50554
      vertex 4.07565 1 3.5221
      vertex 4.07565 0 3.5221
    endloop
  endfacet
  facet normal 0.242983 0 0.970031
    outer loop
      vertex 3.96617 1 3.54952
      vertex 4.07565 0 3.5221
      vertex 4.07565 1 3.5221
    endloop
  endfacet
  facet normal 0.242983 0 0.970031
    outer loop
      vertex 4.07565 0 3.5221
      vertex 3.96617 1 3.54952
      vertex 3.96617 0 3.54952
    endloop
  endfacet
  facet normal 0.0490631 0 0.998796
    outer loop
      vertex 4.18728 1 3.50554
      vertex 4.3 0 3.5
      vertex 4.3 1 3.5
    endloop
  endfacet
  facet normal 0.0490631 0 0.998796
    outer loop
      vertex 4.3 0 3.5
      vertex 4.18728 1 3.50554
      vertex 4.18728 0 3.50554
    endloop
  endfacet
  facet normal 0.336885 0 0.941546
    outer loop
      vertex 3.85991 1 3.58754
      vertex 3.96617 0 3.54952
      vertex 3.96617 1 3.54952
    endloop
  endfacet
  facet normal 0.336885 0 0.941546
    outer loop
      vertex 3.96617 0 3.54952
      vertex 3.85991 1 3.58754
      vertex 3.85991 0 3.58754
    endloop
  endfacet
  facet normal -0.989176 0 -0.146732
    outer loop
      vertex 5.44446 0 4.76272
      vertex 5.4279 1 4.87435
      vertex 5.44446 1 4.76272
    endloop
  endfacet
  facet normal -0.989176 -0 -0.146732
    outer loop
      vertex 5.4279 1 4.87435
      vertex 5.44446 0 4.76272
      vertex 5.4279 0 4.87435
    endloop
  endfacet
  facet normal -0.857726 0 -0.514107
    outer loop
      vertex 5.31421 0 5.19211
      vertex 5.25619 1 5.28891
      vertex 5.31421 1 5.19211
    endloop
  endfacet
  facet normal -0.857726 -0 -0.514107
    outer loop
      vertex 5.25619 1 5.28891
      vertex 5.31421 0 5.19211
      vertex 5.25619 0 5.28891
    endloop
  endfacet
  facet normal -0.595704 0 -0.803204
    outer loop
      vertex 4.93891 0 5.60619
      vertex 5.02955 1 5.53896
      vertex 5.02955 0 5.53896
    endloop
  endfacet
  facet normal -0.595704 0 -0.803204
    outer loop
      vertex 5.02955 1 5.53896
      vertex 4.93891 0 5.60619
      vertex 4.93891 1 5.60619
    endloop
  endfacet
  facet normal -0.0490631 0 -0.998796
    outer loop
      vertex 4.3 0 5.8
      vertex 4.41272 1 5.79446
      vertex 4.41272 0 5.79446
    endloop
  endfacet
  facet normal -0.0490631 0 -0.998796
    outer loop
      vertex 4.41272 1 5.79446
      vertex 4.3 0 5.8
      vertex 4.3 1 5.8
    endloop
  endfacet
  facet normal -0.242981 0 -0.970031
    outer loop
      vertex 4.52435 0 5.7779
      vertex 4.63383 1 5.75048
      vertex 4.63383 0 5.75048
    endloop
  endfacet
  facet normal -0.242981 0 -0.970031
    outer loop
      vertex 4.63383 1 5.75048
      vertex 4.52435 0 5.7779
      vertex 4.52435 1 5.7779
    endloop
  endfacet
  facet normal 0.998796 0 -0.0490631
    outer loop
      vertex 3.15554 0 4.76272
      vertex 3.15 1 4.65
      vertex 3.15554 1 4.76272
    endloop
  endfacet
  facet normal 0.998796 0 -0.0490631
    outer loop
      vertex 3.15 1 4.65
      vertex 3.15554 0 4.76272
      vertex 3.15 0 4.65
    endloop
  endfacet
  facet normal 0.970031 0 -0.242983
    outer loop
      vertex 3.19952 0 4.98383
      vertex 3.1721 1 4.87435
      vertex 3.19952 1 4.98383
    endloop
  endfacet
  facet normal 0.970031 0 -0.242983
    outer loop
      vertex 3.1721 1 4.87435
      vertex 3.19952 0 4.98383
      vertex 3.1721 0 4.87435
    endloop
  endfacet
  facet normal 0.90399 0 -0.427553
    outer loop
      vertex 3.28579 0 5.19211
      vertex 3.23754 1 5.09009
      vertex 3.28579 1 5.19211
    endloop
  endfacet
  facet normal 0.90399 0 -0.427553
    outer loop
      vertex 3.23754 1 5.09009
      vertex 3.28579 0 5.19211
      vertex 3.23754 0 5.09009
    endloop
  endfacet
  facet normal 0.803207 0 -0.5957
    outer loop
      vertex 3.41104 0 5.37955
      vertex 3.34381 1 5.28891
      vertex 3.41104 1 5.37955
    endloop
  endfacet
  facet normal 0.803207 0 -0.5957
    outer loop
      vertex 3.34381 1 5.28891
      vertex 3.41104 0 5.37955
      vertex 3.34381 0 5.28891
    endloop
  endfacet
  facet normal 0.85773 0 -0.514101
    outer loop
      vertex 3.34381 0 5.28891
      vertex 3.28579 1 5.19211
      vertex 3.34381 1 5.28891
    endloop
  endfacet
  facet normal 0.85773 0 -0.514101
    outer loop
      vertex 3.28579 1 5.19211
      vertex 3.34381 0 5.28891
      vertex 3.28579 0 5.19211
    endloop
  endfacet
  facet normal 0.336892 0 -0.941543
    outer loop
      vertex 3.85991 0 5.71246
      vertex 3.96617 1 5.75048
      vertex 3.96617 0 5.75048
    endloop
  endfacet
  facet normal 0.336892 0 -0.941543
    outer loop
      vertex 3.96617 1 5.75048
      vertex 3.85991 0 5.71246
      vertex 3.85991 1 5.71246
    endloop
  endfacet
  facet normal 0.146732 0 -0.989176
    outer loop
      vertex 4.07565 0 5.7779
      vertex 4.18728 1 5.79446
      vertex 4.18728 0 5.79446
    endloop
  endfacet
  facet normal 0.146732 0 -0.989176
    outer loop
      vertex 4.18728 1 5.79446
      vertex 4.07565 0 5.7779
      vertex 4.07565 1 5.7779
    endloop
  endfacet
  facet normal 0.242983 0 -0.970031
    outer loop
      vertex 3.96617 0 5.75048
      vertex 4.07565 1 5.7779
      vertex 4.07565 0 5.7779
    endloop
  endfacet
  facet normal 0.242983 0 -0.970031
    outer loop
      vertex 4.07565 1 5.7779
      vertex 3.96617 0 5.75048
      vertex 3.96617 1 5.75048
    endloop
  endfacet
  facet normal 0.514103 0 -0.857728
    outer loop
      vertex 3.66109 0 5.60619
      vertex 3.75789 1 5.66421
      vertex 3.75789 0 5.66421
    endloop
  endfacet
  facet normal 0.514103 0 -0.857728
    outer loop
      vertex 3.75789 1 5.66421
      vertex 3.66109 0 5.60619
      vertex 3.66109 1 5.60619
    endloop
  endfacet
  facet normal -0.903989 0 0.427556
    outer loop
      vertex 5.31421 0 4.10789
      vertex 5.36246 1 4.20991
      vertex 5.31421 1 4.10789
    endloop
  endfacet
  facet normal -0.903989 0 0.427556
    outer loop
      vertex 5.36246 1 4.20991
      vertex 5.31421 0 4.10789
      vertex 5.36246 0 4.20991
    endloop
  endfacet
  facet normal -0.857726 0 0.514107
    outer loop
      vertex 5.25619 0 4.01109
      vertex 5.31421 1 4.10789
      vertex 5.25619 1 4.01109
    endloop
  endfacet
  facet normal -0.857726 0 0.514107
    outer loop
      vertex 5.31421 1 4.10789
      vertex 5.25619 0 4.01109
      vertex 5.31421 0 4.10789
    endloop
  endfacet
  facet normal -0.146732 0 0.989176
    outer loop
      vertex 4.41272 1 3.50554
      vertex 4.52435 0 3.5221
      vertex 4.52435 1 3.5221
    endloop
  endfacet
  facet normal -0.146732 0 0.989176
    outer loop
      vertex 4.52435 0 3.5221
      vertex 4.41272 1 3.50554
      vertex 4.41272 0 3.50554
    endloop
  endfacet
  facet normal -0.427556 0 0.903989
    outer loop
      vertex 4.74009 1 3.58754
      vertex 4.84211 0 3.63579
      vertex 4.84211 1 3.63579
    endloop
  endfacet
  facet normal -0.427556 0 0.903989
    outer loop
      vertex 4.84211 0 3.63579
      vertex 4.74009 1 3.58754
      vertex 4.74009 0 3.58754
    endloop
  endfacet
  facet normal -0.671553 0 0.740956
    outer loop
      vertex 5.02955 1 3.76104
      vertex 5.11317 0 3.83683
      vertex 5.11317 1 3.83683
    endloop
  endfacet
  facet normal -0.671553 0 0.740956
    outer loop
      vertex 5.11317 0 3.83683
      vertex 5.02955 1 3.76104
      vertex 5.02955 0 3.76104
    endloop
  endfacet
  facet normal -0.514103 0 0.857728
    outer loop
      vertex 4.84211 1 3.63579
      vertex 4.93891 0 3.69381
      vertex 4.93891 1 3.69381
    endloop
  endfacet
  facet normal -0.514103 0 0.857728
    outer loop
      vertex 4.93891 0 3.69381
      vertex 4.84211 1 3.63579
      vertex 4.84211 0 3.63579
    endloop
  endfacet
  facet normal -0.595704 0 0.803204
    outer loop
      vertex 4.93891 1 3.69381
      vertex 5.02955 0 3.76104
      vertex 5.02955 1 3.76104
    endloop
  endfacet
  facet normal -0.595704 0 0.803204
    outer loop
      vertex 5.02955 0 3.76104
      vertex 4.93891 1 3.69381
      vertex 4.93891 0 3.69381
    endloop
  endfacet
  facet normal 0.5957 0 0.803207
    outer loop
      vertex 3.57045 1 3.76104
      vertex 3.66109 0 3.69381
      vertex 3.66109 1 3.69381
    endloop
  endfacet
  facet normal 0.5957 0 0.803207
    outer loop
      vertex 3.66109 0 3.69381
      vertex 3.57045 1 3.76104
      vertex 3.57045 0 3.76104
    endloop
  endfacet
  facet normal 0.514103 0 0.857728
    outer loop
      vertex 3.66109 1 3.69381
      vertex 3.75789 0 3.63579
      vertex 3.75789 1 3.63579
    endloop
  endfacet
  facet normal 0.514103 0 0.857728
    outer loop
      vertex 3.75789 0 3.63579
      vertex 3.66109 1 3.69381
      vertex 3.66109 0 3.69381
    endloop
  endfacet
  facet normal 0.989176 -0 0.146732
    outer loop
      vertex 3.15554 0 4.53728
      vertex 3.1721 1 4.42565
      vertex 3.15554 1 4.53728
    endloop
  endfacet
  facet normal 0.989176 0 0.146732
    outer loop
      vertex 3.1721 1 4.42565
      vertex 3.15554 0 4.53728
      vertex 3.1721 0 4.42565
    endloop
  endfacet
  facet normal 0.970031 -0 0.242983
    outer loop
      vertex 3.1721 0 4.42565
      vertex 3.19952 1 4.31617
      vertex 3.1721 1 4.42565
    endloop
  endfacet
  facet normal 0.970031 0 0.242983
    outer loop
      vertex 3.19952 1 4.31617
      vertex 3.1721 0 4.42565
      vertex 3.19952 0 4.31617
    endloop
  endfacet
  facet normal 0.941544 -0 0.336889
    outer loop
      vertex 3.19952 0 4.31617
      vertex 3.23754 1 4.20991
      vertex 3.19952 1 4.31617
    endloop
  endfacet
  facet normal 0.941544 0 0.336889
    outer loop
      vertex 3.23754 1 4.20991
      vertex 3.19952 0 4.31617
      vertex 3.23754 0 4.20991
    endloop
  endfacet
  facet normal 0.903989 -0 0.427556
    outer loop
      vertex 3.23754 0 4.20991
      vertex 3.28579 1 4.10789
      vertex 3.23754 1 4.20991
    endloop
  endfacet
  facet normal 0.903989 0 0.427556
    outer loop
      vertex 3.28579 1 4.10789
      vertex 3.23754 0 4.20991
      vertex 3.28579 0 4.10789
    endloop
  endfacet
  facet normal 0.803207 -0 0.5957
    outer loop
      vertex 3.34381 0 4.01109
      vertex 3.41104 1 3.92045
      vertex 3.34381 1 4.01109
    endloop
  endfacet
  facet normal 0.803207 0 0.5957
    outer loop
      vertex 3.41104 1 3.92045
      vertex 3.34381 0 4.01109
      vertex 3.41104 0 3.92045
    endloop
  endfacet
  facet normal 0.740952 -0 0.671558
    outer loop
      vertex 3.41104 0 3.92045
      vertex 3.48683 1 3.83683
      vertex 3.41104 1 3.92045
    endloop
  endfacet
  facet normal 0.740952 0 0.671558
    outer loop
      vertex 3.48683 1 3.83683
      vertex 3.41104 0 3.92045
      vertex 3.48683 0 3.83683
    endloop
  endfacet
  facet normal 0.671557 0 0.740953
    outer loop
      vertex 3.48683 1 3.83683
      vertex 3.57045 0 3.76104
      vertex 3.57045 1 3.76104
    endloop
  endfacet
  facet normal 0.671557 0 0.740953
    outer loop
      vertex 3.57045 0 3.76104
      vertex 3.48683 1 3.83683
      vertex 3.48683 0 3.83683
    endloop
  endfacet
  facet normal -0.970033 0 0.242975
    outer loop
      vertex 5.40048 0 4.31617
      vertex 5.4279 1 4.42565
      vertex 5.40048 1 4.31617
    endloop
  endfacet
  facet normal -0.970033 0 0.242975
    outer loop
      vertex 5.4279 1 4.42565
      vertex 5.40048 0 4.31617
      vertex 5.4279 0 4.42565
    endloop
  endfacet
  facet normal -0.989176 0 0.146732
    outer loop
      vertex 5.4279 0 4.42565
      vertex 5.44446 1 4.53728
      vertex 5.4279 1 4.42565
    endloop
  endfacet
  facet normal -0.989176 0 0.146732
    outer loop
      vertex 5.44446 1 4.53728
      vertex 5.4279 0 4.42565
      vertex 5.44446 0 4.53728
    endloop
  endfacet
  facet normal -0.998795 0 -0.0490799
    outer loop
      vertex 17.45 0 4.65
      vertex 17.4445 1 4.76272
      vertex 17.45 1 4.65
    endloop
  endfacet
  facet normal -0.998795 -0 -0.0490799
    outer loop
      vertex 17.4445 1 4.76272
      vertex 17.45 0 4.65
      vertex 17.4445 0 4.76272
    endloop
  endfacet
  facet normal -0.989176 0 -0.146732
    outer loop
      vertex 17.4445 0 4.76272
      vertex 17.4279 1 4.87435
      vertex 17.4445 1 4.76272
    endloop
  endfacet
  facet normal -0.989176 -0 -0.146732
    outer loop
      vertex 17.4279 1 4.87435
      vertex 17.4445 0 4.76272
      vertex 17.4279 0 4.87435
    endloop
  endfacet
  facet normal 0.0490626 0 -0.998796
    outer loop
      vertex 16.1873 0 5.79446
      vertex 16.3 1 5.8
      vertex 16.3 0 5.8
    endloop
  endfacet
  facet normal 0.0490626 0 -0.998796
    outer loop
      vertex 16.3 1 5.8
      vertex 16.1873 0 5.79446
      vertex 16.1873 1 5.79446
    endloop
  endfacet
  facet normal -0.671562 0 -0.740948
    outer loop
      vertex 17.0296 0 5.53896
      vertex 17.1132 1 5.46317
      vertex 17.1132 0 5.46317
    endloop
  endfacet
  facet normal -0.671562 0 -0.740948
    outer loop
      vertex 17.1132 1 5.46317
      vertex 17.0296 0 5.53896
      vertex 17.0296 1 5.53896
    endloop
  endfacet
  facet normal 0.740948 0 -0.671562
    outer loop
      vertex 15.4868 0 5.46317
      vertex 15.411 1 5.37955
      vertex 15.4868 1 5.46317
    endloop
  endfacet
  facet normal 0.740948 0 -0.671562
    outer loop
      vertex 15.411 1 5.37955
      vertex 15.4868 0 5.46317
      vertex 15.411 0 5.37955
    endloop
  endfacet
  facet normal 0.427549 0 -0.903992
    outer loop
      vertex 15.7579 0 5.66421
      vertex 15.8599 1 5.71246
      vertex 15.8599 0 5.71246
    endloop
  endfacet
  facet normal 0.427549 0 -0.903992
    outer loop
      vertex 15.8599 1 5.71246
      vertex 15.7579 0 5.66421
      vertex 15.7579 1 5.66421
    endloop
  endfacet
  facet normal -0.146734 0 0.989176
    outer loop
      vertex 16.4127 1 3.50554
      vertex 16.5244 0 3.5221
      vertex 16.5244 1 3.5221
    endloop
  endfacet
  facet normal -0.146734 0 0.989176
    outer loop
      vertex 16.5244 0 3.5221
      vertex 16.4127 1 3.50554
      vertex 16.4127 0 3.50554
    endloop
  endfacet
  facet normal -0.90399 0 -0.427553
    outer loop
      vertex 17.3625 0 5.09009
      vertex 17.3142 1 5.19211
      vertex 17.3625 1 5.09009
    endloop
  endfacet
  facet normal -0.90399 -0 -0.427553
    outer loop
      vertex 17.3142 1 5.19211
      vertex 17.3625 0 5.09009
      vertex 17.3142 0 5.19211
    endloop
  endfacet
  facet normal -0.336892 0 -0.941543
    outer loop
      vertex 16.6338 0 5.75048
      vertex 16.7401 1 5.71246
      vertex 16.7401 0 5.71246
    endloop
  endfacet
  facet normal -0.336892 0 -0.941543
    outer loop
      vertex 16.7401 1 5.71246
      vertex 16.6338 0 5.75048
      vertex 16.6338 1 5.75048
    endloop
  endfacet
  facet normal 0.85773 0 -0.514101
    outer loop
      vertex 15.3438 0 5.28891
      vertex 15.2858 1 5.19211
      vertex 15.3438 1 5.28891
    endloop
  endfacet
  facet normal 0.85773 0 -0.514101
    outer loop
      vertex 15.2858 1 5.19211
      vertex 15.3438 0 5.28891
      vertex 15.2858 0 5.19211
    endloop
  endfacet
  facet normal 0.242983 0 -0.970031
    outer loop
      vertex 15.9662 0 5.75048
      vertex 16.0756 1 5.7779
      vertex 16.0756 0 5.7779
    endloop
  endfacet
  facet normal 0.242983 0 -0.970031
    outer loop
      vertex 16.0756 1 5.7779
      vertex 15.9662 0 5.75048
      vertex 15.9662 1 5.75048
    endloop
  endfacet
  facet normal -0.740956 0 0.671553
    outer loop
      vertex 17.1132 0 3.83683
      vertex 17.189 1 3.92045
      vertex 17.1132 1 3.83683
    endloop
  endfacet
  facet normal -0.740956 0 0.671553
    outer loop
      vertex 17.189 1 3.92045
      vertex 17.1132 0 3.83683
      vertex 17.189 0 3.92045
    endloop
  endfacet
  facet normal -0.970035 0 0.242967
    outer loop
      vertex 17.4005 0 4.31617
      vertex 17.4279 1 4.42565
      vertex 17.4005 1 4.31617
    endloop
  endfacet
  facet normal -0.970035 0 0.242967
    outer loop
      vertex 17.4279 1 4.42565
      vertex 17.4005 0 4.31617
      vertex 17.4279 0 4.42565
    endloop
  endfacet
  facet normal -0.970035 0 -0.242967
    outer loop
      vertex 17.4279 0 4.87435
      vertex 17.4005 1 4.98383
      vertex 17.4279 1 4.87435
    endloop
  endfacet
  facet normal -0.970035 -0 -0.242967
    outer loop
      vertex 17.4005 1 4.98383
      vertex 17.4279 0 4.87435
      vertex 17.4005 0 4.98383
    endloop
  endfacet
  facet normal -0.941541 0 -0.336899
    outer loop
      vertex 17.4005 0 4.98383
      vertex 17.3625 1 5.09009
      vertex 17.4005 1 4.98383
    endloop
  endfacet
  facet normal -0.941541 -0 -0.336899
    outer loop
      vertex 17.3625 1 5.09009
      vertex 17.4005 0 4.98383
      vertex 17.3625 0 5.09009
    endloop
  endfacet
  facet normal -0.146734 0 -0.989176
    outer loop
      vertex 16.4127 0 5.79446
      vertex 16.5244 1 5.7779
      vertex 16.5244 0 5.7779
    endloop
  endfacet
  facet normal -0.146734 0 -0.989176
    outer loop
      vertex 16.5244 1 5.7779
      vertex 16.4127 0 5.79446
      vertex 16.4127 1 5.79446
    endloop
  endfacet
  facet normal 0.989176 0 -0.146732
    outer loop
      vertex 15.1721 0 4.87435
      vertex 15.1555 1 4.76272
      vertex 15.1721 1 4.87435
    endloop
  endfacet
  facet normal 0.989176 0 -0.146732
    outer loop
      vertex 15.1555 1 4.76272
      vertex 15.1721 0 4.87435
      vertex 15.1555 0 4.76272
    endloop
  endfacet
  facet normal 0.941543 0 -0.336892
    outer loop
      vertex 15.2375 0 5.09009
      vertex 15.1995 1 4.98383
      vertex 15.2375 1 5.09009
    endloop
  endfacet
  facet normal 0.941543 0 -0.336892
    outer loop
      vertex 15.1995 1 4.98383
      vertex 15.2375 0 5.09009
      vertex 15.1995 0 4.98383
    endloop
  endfacet
  facet normal 0.90399 0 -0.427553
    outer loop
      vertex 15.2858 0 5.19211
      vertex 15.2375 1 5.09009
      vertex 15.2858 1 5.19211
    endloop
  endfacet
  facet normal 0.90399 0 -0.427553
    outer loop
      vertex 15.2375 1 5.09009
      vertex 15.2858 0 5.19211
      vertex 15.2375 0 5.09009
    endloop
  endfacet
  facet normal 0.5957 0 -0.803207
    outer loop
      vertex 15.5704 0 5.53896
      vertex 15.6611 1 5.60619
      vertex 15.6611 0 5.60619
    endloop
  endfacet
  facet normal 0.5957 0 -0.803207
    outer loop
      vertex 15.6611 1 5.60619
      vertex 15.5704 0 5.53896
      vertex 15.5704 1 5.53896
    endloop
  endfacet
  facet normal 0.146734 0 -0.989176
    outer loop
      vertex 16.0756 0 5.7779
      vertex 16.1873 1 5.79446
      vertex 16.1873 0 5.79446
    endloop
  endfacet
  facet normal 0.146734 0 -0.989176
    outer loop
      vertex 16.1873 1 5.79446
      vertex 16.0756 0 5.7779
      vertex 16.0756 1 5.7779
    endloop
  endfacet
  facet normal -0.336885 0 0.941546
    outer loop
      vertex 16.6338 1 3.54952
      vertex 16.7401 0 3.58754
      vertex 16.7401 1 3.58754
    endloop
  endfacet
  facet normal -0.336885 0 0.941546
    outer loop
      vertex 16.7401 0 3.58754
      vertex 16.6338 1 3.54952
      vertex 16.6338 0 3.54952
    endloop
  endfacet
  facet normal -0.671557 0 0.740953
    outer loop
      vertex 17.0296 1 3.76104
      vertex 17.1132 0 3.83683
      vertex 17.1132 1 3.83683
    endloop
  endfacet
  facet normal -0.671557 0 0.740953
    outer loop
      vertex 17.1132 0 3.83683
      vertex 17.0296 1 3.76104
      vertex 17.0296 0 3.76104
    endloop
  endfacet
  facet normal -0.803207 0 0.5957
    outer loop
      vertex 17.189 0 3.92045
      vertex 17.2562 1 4.01109
      vertex 17.189 1 3.92045
    endloop
  endfacet
  facet normal -0.803207 0 0.5957
    outer loop
      vertex 17.2562 1 4.01109
      vertex 17.189 0 3.92045
      vertex 17.2562 0 4.01109
    endloop
  endfacet
  facet normal -0.857726 0 0.514107
    outer loop
      vertex 17.2562 0 4.01109
      vertex 17.3142 1 4.10789
      vertex 17.2562 1 4.01109
    endloop
  endfacet
  facet normal -0.857726 0 0.514107
    outer loop
      vertex 17.3142 1 4.10789
      vertex 17.2562 0 4.01109
      vertex 17.3142 0 4.10789
    endloop
  endfacet
  facet normal -0.903989 0 0.427556
    outer loop
      vertex 17.3142 0 4.10789
      vertex 17.3625 1 4.20991
      vertex 17.3142 1 4.10789
    endloop
  endfacet
  facet normal -0.903989 0 0.427556
    outer loop
      vertex 17.3625 1 4.20991
      vertex 17.3142 0 4.10789
      vertex 17.3625 0 4.20991
    endloop
  endfacet
  facet normal 0.514103 0 0.857728
    outer loop
      vertex 15.6611 1 3.69381
      vertex 15.7579 0 3.63579
      vertex 15.7579 1 3.63579
    endloop
  endfacet
  facet normal 0.514103 0 0.857728
    outer loop
      vertex 15.7579 0 3.63579
      vertex 15.6611 1 3.69381
      vertex 15.6611 0 3.69381
    endloop
  endfacet
  facet normal 0.242983 0 0.970031
    outer loop
      vertex 15.9662 1 3.54952
      vertex 16.0756 0 3.5221
      vertex 16.0756 1 3.5221
    endloop
  endfacet
  facet normal 0.242983 0 0.970031
    outer loop
      vertex 16.0756 0 3.5221
      vertex 15.9662 1 3.54952
      vertex 15.9662 0 3.54952
    endloop
  endfacet
  facet normal 0.85773 -0 0.514101
    outer loop
      vertex 15.2858 0 4.10789
      vertex 15.3438 1 4.01109
      vertex 15.2858 1 4.10789
    endloop
  endfacet
  facet normal 0.85773 0 0.514101
    outer loop
      vertex 15.3438 1 4.01109
      vertex 15.2858 0 4.10789
      vertex 15.3438 0 4.01109
    endloop
  endfacet
  facet normal 0.989176 -0 0.146732
    outer loop
      vertex 15.1555 0 4.53728
      vertex 15.1721 1 4.42565
      vertex 15.1555 1 4.53728
    endloop
  endfacet
  facet normal 0.989176 0 0.146732
    outer loop
      vertex 15.1721 1 4.42565
      vertex 15.1555 0 4.53728
      vertex 15.1721 0 4.42565
    endloop
  endfacet
  facet normal -0.740953 0 -0.671557
    outer loop
      vertex 17.189 0 5.37955
      vertex 17.1132 1 5.46317
      vertex 17.189 1 5.37955
    endloop
  endfacet
  facet normal -0.740953 -0 -0.671557
    outer loop
      vertex 17.1132 1 5.46317
      vertex 17.189 0 5.37955
      vertex 17.1132 0 5.46317
    endloop
  endfacet
  facet normal -0.857726 0 -0.514107
    outer loop
      vertex 17.3142 0 5.19211
      vertex 17.2562 1 5.28891
      vertex 17.3142 1 5.19211
    endloop
  endfacet
  facet normal -0.857726 -0 -0.514107
    outer loop
      vertex 17.2562 1 5.28891
      vertex 17.3142 0 5.19211
      vertex 17.2562 0 5.28891
    endloop
  endfacet
  facet normal -0.803207 0 -0.5957
    outer loop
      vertex 17.2562 0 5.28891
      vertex 17.189 1 5.37955
      vertex 17.2562 1 5.28891
    endloop
  endfacet
  facet normal -0.803207 -0 -0.5957
    outer loop
      vertex 17.189 1 5.37955
      vertex 17.2562 0 5.28891
      vertex 17.189 0 5.37955
    endloop
  endfacet
  facet normal -0.242981 0 -0.970031
    outer loop
      vertex 16.5244 0 5.7779
      vertex 16.6338 1 5.75048
      vertex 16.6338 0 5.75048
    endloop
  endfacet
  facet normal -0.242981 0 -0.970031
    outer loop
      vertex 16.6338 1 5.75048
      vertex 16.5244 0 5.7779
      vertex 16.5244 1 5.7779
    endloop
  endfacet
  facet normal -0.0490626 0 -0.998796
    outer loop
      vertex 16.3 0 5.8
      vertex 16.4127 1 5.79446
      vertex 16.4127 0 5.79446
    endloop
  endfacet
  facet normal -0.0490626 0 -0.998796
    outer loop
      vertex 16.4127 1 5.79446
      vertex 16.3 0 5.8
      vertex 16.3 1 5.8
    endloop
  endfacet
  facet normal -0.427549 0 -0.903992
    outer loop
      vertex 16.7401 0 5.71246
      vertex 16.8421 1 5.66421
      vertex 16.8421 0 5.66421
    endloop
  endfacet
  facet normal -0.427549 0 -0.903992
    outer loop
      vertex 16.8421 1 5.66421
      vertex 16.7401 0 5.71246
      vertex 16.7401 1 5.71246
    endloop
  endfacet
  facet normal -0.5957 0 -0.803207
    outer loop
      vertex 16.9389 0 5.60619
      vertex 17.0296 1 5.53896
      vertex 17.0296 0 5.53896
    endloop
  endfacet
  facet normal -0.5957 0 -0.803207
    outer loop
      vertex 17.0296 1 5.53896
      vertex 16.9389 0 5.60619
      vertex 16.9389 1 5.60619
    endloop
  endfacet
  facet normal -0.514103 0 -0.857728
    outer loop
      vertex 16.8421 0 5.66421
      vertex 16.9389 1 5.60619
      vertex 16.9389 0 5.60619
    endloop
  endfacet
  facet normal -0.514103 0 -0.857728
    outer loop
      vertex 16.9389 1 5.60619
      vertex 16.8421 0 5.66421
      vertex 16.8421 1 5.66421
    endloop
  endfacet
  facet normal 0.803207 0 -0.5957
    outer loop
      vertex 15.411 0 5.37955
      vertex 15.3438 1 5.28891
      vertex 15.411 1 5.37955
    endloop
  endfacet
  facet normal 0.803207 0 -0.5957
    outer loop
      vertex 15.3438 1 5.28891
      vertex 15.411 0 5.37955
      vertex 15.3438 0 5.28891
    endloop
  endfacet
  facet normal 0.970031 0 -0.242983
    outer loop
      vertex 15.1995 0 4.98383
      vertex 15.1721 1 4.87435
      vertex 15.1995 1 4.98383
    endloop
  endfacet
  facet normal 0.970031 0 -0.242983
    outer loop
      vertex 15.1721 1 4.87435
      vertex 15.1995 0 4.98383
      vertex 15.1721 0 4.87435
    endloop
  endfacet
  facet normal 0.998796 0 -0.0490631
    outer loop
      vertex 15.1555 0 4.76272
      vertex 15.15 1 4.65
      vertex 15.1555 1 4.76272
    endloop
  endfacet
  facet normal 0.998796 0 -0.0490631
    outer loop
      vertex 15.15 1 4.65
      vertex 15.1555 0 4.76272
      vertex 15.15 0 4.65
    endloop
  endfacet
  facet normal 0.998796 -0 0.0490631
    outer loop
      vertex 15.15 0 4.65
      vertex 15.1555 1 4.53728
      vertex 15.15 1 4.65
    endloop
  endfacet
  facet normal 0.998796 0 0.0490631
    outer loop
      vertex 15.1555 1 4.53728
      vertex 15.15 0 4.65
      vertex 15.1555 0 4.53728
    endloop
  endfacet
  facet normal 0.671562 0 -0.740948
    outer loop
      vertex 15.4868 0 5.46317
      vertex 15.5704 1 5.53896
      vertex 15.5704 0 5.53896
    endloop
  endfacet
  facet normal 0.671562 0 -0.740948
    outer loop
      vertex 15.5704 1 5.53896
      vertex 15.4868 0 5.46317
      vertex 15.4868 1 5.46317
    endloop
  endfacet
  facet normal 0.514103 0 -0.857728
    outer loop
      vertex 15.6611 0 5.60619
      vertex 15.7579 1 5.66421
      vertex 15.7579 0 5.66421
    endloop
  endfacet
  facet normal 0.514103 0 -0.857728
    outer loop
      vertex 15.7579 1 5.66421
      vertex 15.6611 0 5.60619
      vertex 15.6611 1 5.60619
    endloop
  endfacet
  facet normal 0.336892 0 -0.941543
    outer loop
      vertex 15.8599 0 5.71246
      vertex 15.9662 1 5.75048
      vertex 15.9662 0 5.75048
    endloop
  endfacet
  facet normal 0.336892 0 -0.941543
    outer loop
      vertex 15.9662 1 5.75048
      vertex 15.8599 0 5.71246
      vertex 15.8599 1 5.71246
    endloop
  endfacet
  facet normal -0.242981 0 0.970031
    outer loop
      vertex 16.5244 1 3.5221
      vertex 16.6338 0 3.54952
      vertex 16.6338 1 3.54952
    endloop
  endfacet
  facet normal -0.242981 0 0.970031
    outer loop
      vertex 16.6338 0 3.54952
      vertex 16.5244 1 3.5221
      vertex 16.5244 0 3.5221
    endloop
  endfacet
  facet normal -0.427556 0 0.903989
    outer loop
      vertex 16.7401 1 3.58754
      vertex 16.8421 0 3.63579
      vertex 16.8421 1 3.63579
    endloop
  endfacet
  facet normal -0.427556 0 0.903989
    outer loop
      vertex 16.8421 0 3.63579
      vertex 16.7401 1 3.58754
      vertex 16.7401 0 3.58754
    endloop
  endfacet
  facet normal -0.514103 0 0.857728
    outer loop
      vertex 16.8421 1 3.63579
      vertex 16.9389 0 3.69381
      vertex 16.9389 1 3.69381
    endloop
  endfacet
  facet normal -0.514103 0 0.857728
    outer loop
      vertex 16.9389 0 3.69381
      vertex 16.8421 1 3.63579
      vertex 16.8421 0 3.63579
    endloop
  endfacet
  facet normal -0.5957 0 0.803207
    outer loop
      vertex 16.9389 1 3.69381
      vertex 17.0296 0 3.76104
      vertex 17.0296 1 3.76104
    endloop
  endfacet
  facet normal -0.5957 0 0.803207
    outer loop
      vertex 17.0296 0 3.76104
      vertex 16.9389 1 3.69381
      vertex 16.9389 0 3.69381
    endloop
  endfacet
  facet normal -0.941542 0 0.336897
    outer loop
      vertex 17.3625 0 4.20991
      vertex 17.4005 1 4.31617
      vertex 17.3625 1 4.20991
    endloop
  endfacet
  facet normal -0.941542 0 0.336897
    outer loop
      vertex 17.4005 1 4.31617
      vertex 17.3625 0 4.20991
      vertex 17.4005 0 4.31617
    endloop
  endfacet
  facet normal -0.989176 0 0.146732
    outer loop
      vertex 17.4279 0 4.42565
      vertex 17.4445 1 4.53728
      vertex 17.4279 1 4.42565
    endloop
  endfacet
  facet normal -0.989176 0 0.146732
    outer loop
      vertex 17.4445 1 4.53728
      vertex 17.4279 0 4.42565
      vertex 17.4445 0 4.53728
    endloop
  endfacet
  facet normal -0.998795 0 0.0490799
    outer loop
      vertex 17.4445 0 4.53728
      vertex 17.45 1 4.65
      vertex 17.4445 1 4.53728
    endloop
  endfacet
  facet normal -0.998795 0 0.0490799
    outer loop
      vertex 17.45 1 4.65
      vertex 17.4445 0 4.53728
      vertex 17.45 0 4.65
    endloop
  endfacet
  facet normal 0.5957 0 0.803207
    outer loop
      vertex 15.5704 1 3.76104
      vertex 15.6611 0 3.69381
      vertex 15.6611 1 3.69381
    endloop
  endfacet
  facet normal 0.5957 0 0.803207
    outer loop
      vertex 15.6611 0 3.69381
      vertex 15.5704 1 3.76104
      vertex 15.5704 0 3.76104
    endloop
  endfacet
  facet normal 0.427556 0 0.903989
    outer loop
      vertex 15.7579 1 3.63579
      vertex 15.8599 0 3.58754
      vertex 15.8599 1 3.58754
    endloop
  endfacet
  facet normal 0.427556 0 0.903989
    outer loop
      vertex 15.8599 0 3.58754
      vertex 15.7579 1 3.63579
      vertex 15.7579 0 3.63579
    endloop
  endfacet
  facet normal 0.336885 0 0.941546
    outer loop
      vertex 15.8599 1 3.58754
      vertex 15.9662 0 3.54952
      vertex 15.9662 1 3.54952
    endloop
  endfacet
  facet normal 0.336885 0 0.941546
    outer loop
      vertex 15.9662 0 3.54952
      vertex 15.8599 1 3.58754
      vertex 15.8599 0 3.58754
    endloop
  endfacet
  facet normal 0.146734 0 0.989176
    outer loop
      vertex 16.0756 1 3.5221
      vertex 16.1873 0 3.50554
      vertex 16.1873 1 3.50554
    endloop
  endfacet
  facet normal 0.146734 0 0.989176
    outer loop
      vertex 16.1873 0 3.50554
      vertex 16.0756 1 3.5221
      vertex 16.0756 0 3.5221
    endloop
  endfacet
  facet normal 0.0490626 0 0.998796
    outer loop
      vertex 16.1873 1 3.50554
      vertex 16.3 0 3.5
      vertex 16.3 1 3.5
    endloop
  endfacet
  facet normal 0.0490626 0 0.998796
    outer loop
      vertex 16.3 0 3.5
      vertex 16.1873 1 3.50554
      vertex 16.1873 0 3.50554
    endloop
  endfacet
  facet normal -0.0490626 0 0.998796
    outer loop
      vertex 16.3 1 3.5
      vertex 16.4127 0 3.50554
      vertex 16.4127 1 3.50554
    endloop
  endfacet
  facet normal -0.0490626 0 0.998796
    outer loop
      vertex 16.4127 0 3.50554
      vertex 16.3 1 3.5
      vertex 16.3 0 3.5
    endloop
  endfacet
  facet normal 0.740952 -0 0.671558
    outer loop
      vertex 15.411 0 3.92045
      vertex 15.4868 1 3.83683
      vertex 15.411 1 3.92045
    endloop
  endfacet
  facet normal 0.740952 0 0.671558
    outer loop
      vertex 15.4868 1 3.83683
      vertex 15.411 0 3.92045
      vertex 15.4868 0 3.83683
    endloop
  endfacet
  facet normal 0.671557 0 0.740953
    outer loop
      vertex 15.4868 1 3.83683
      vertex 15.5704 0 3.76104
      vertex 15.5704 1 3.76104
    endloop
  endfacet
  facet normal 0.671557 0 0.740953
    outer loop
      vertex 15.5704 0 3.76104
      vertex 15.4868 1 3.83683
      vertex 15.4868 0 3.83683
    endloop
  endfacet
  facet normal 0.803207 -0 0.5957
    outer loop
      vertex 15.3438 0 4.01109
      vertex 15.411 1 3.92045
      vertex 15.3438 1 4.01109
    endloop
  endfacet
  facet normal 0.803207 0 0.5957
    outer loop
      vertex 15.411 1 3.92045
      vertex 15.3438 0 4.01109
      vertex 15.411 0 3.92045
    endloop
  endfacet
  facet normal 0.941544 -0 0.336889
    outer loop
      vertex 15.1995 0 4.31617
      vertex 15.2375 1 4.20991
      vertex 15.1995 1 4.31617
    endloop
  endfacet
  facet normal 0.941544 0 0.336889
    outer loop
      vertex 15.2375 1 4.20991
      vertex 15.1995 0 4.31617
      vertex 15.2375 0 4.20991
    endloop
  endfacet
  facet normal 0.903989 -0 0.427556
    outer loop
      vertex 15.2375 0 4.20991
      vertex 15.2858 1 4.10789
      vertex 15.2375 1 4.20991
    endloop
  endfacet
  facet normal 0.903989 0 0.427556
    outer loop
      vertex 15.2858 1 4.10789
      vertex 15.2375 0 4.20991
      vertex 15.2858 0 4.10789
    endloop
  endfacet
  facet normal 0.970031 -0 0.242983
    outer loop
      vertex 15.1721 0 4.42565
      vertex 15.1995 1 4.31617
      vertex 15.1721 1 4.42565
    endloop
  endfacet
  facet normal 0.970031 0 0.242983
    outer loop
      vertex 15.1995 1 4.31617
      vertex 15.1721 0 4.42565
      vertex 15.1995 0 4.31617
    endloop
  endfacet
endsolid OpenSCAD_Model
